<?xml version="1.0" standalone="no"?>
<!DOCTYPE svg PUBLIC "-//W3C//DTD SVG 1.1//EN" "http://www.w3.org/Graphics/SVG/1.1/DTD/svg11.dtd" >
<svg xmlns="http://www.w3.org/2000/svg">
<metadata>
Created by FontForge 20120731 at Sun Jul 10 10:16:23 2016
 By admin
</metadata>
<defs>
<font id="iconfont" horiz-adv-x="1024" >
  <font-face 
    font-family="iconfont"
    font-weight="500"
    font-stretch="normal"
    units-per-em="1024"
    panose-1="2 0 6 3 0 0 0 0 0 0"
    ascent="896"
    descent="-128"
    x-height="792"
    bbox="0 -224 1029 896"
    underline-thickness="50"
    underline-position="-100"
    unicode-range="U+0078-E656"
  />
<missing-glyph horiz-adv-x="374" 
d="M34 0v682h272v-682h-272zM68 34h204v614h-204v-614z" />
    <glyph glyph-name=".notdef" horiz-adv-x="374" 
d="M34 0v682h272v-682h-272zM68 34h204v614h-204v-614z" />
    <glyph glyph-name=".null" horiz-adv-x="0" 
 />
    <glyph glyph-name="nonmarkingreturn" horiz-adv-x="341" 
 />
    <glyph glyph-name="x" unicode="x" horiz-adv-x="1001" 
d="M281 543q-27 -1 -53 -1h-83q-18 0 -36.5 -6t-32.5 -18.5t-23 -32t-9 -45.5v-76h912v41q0 16 -0.5 30t-0.5 18q0 13 -5 29t-17 29.5t-31.5 22.5t-49.5 9h-133v-97h-438v97zM955 310v-52q0 -23 0.5 -52t0.5 -58t-10.5 -47.5t-26 -30t-33 -16t-31.5 -4.5q-14 -1 -29.5 -0.5
t-29.5 0.5h-32l-45 128h-439l-44 -128h-29h-34q-20 0 -45 1q-25 0 -41 9.5t-25.5 23t-13.5 29.5t-4 30v167h911zM163 247q-12 0 -21 -8.5t-9 -21.5t9 -21.5t21 -8.5q13 0 22 8.5t9 21.5t-9 21.5t-22 8.5zM316 123q-8 -26 -14 -48q-5 -19 -10.5 -37t-7.5 -25t-3 -15t1 -14.5
t9.5 -10.5t21.5 -4h37h67h81h80h64h36q23 0 34 12t2 38q-5 13 -9.5 30.5t-9.5 34.5q-5 19 -11 39h-368zM336 498v228q0 11 2.5 23t10 21.5t20.5 15.5t34 6h188q31 0 51.5 -14.5t20.5 -52.5v-227h-327z" />
    <glyph glyph-name="uniE600" unicode="&#xe600;" 
d="M592 194q-14 5 -26 9q-3 1 -6.5 3t-8.5 8.5t-8 15t-2.5 23.5t6.5 34q44 45 72 111.5t28 133.5q0 103 -59 160.5t-146 57.5t-145.5 -57.5t-58.5 -160.5q0 -68 28 -134t72 -112q7 -22 7 -37t-8 -25.5t-14 -14.5t-11 -6q-62 -23 -116.5 -52t-94.5 -67t-40 -74v-28
q0 -120 351 -125q-4 21 1 40l43 147q7 24 26 41zM813 158l-34 34h1l-45 45l-206 -204q-5 -3 -6 -8l-43 -147q-3 -10 4 -18q6 -6 13 -6q3 0 5 1l147 43q5 2 9 6l205 204zM549 -93l-18 17l24 79l9 -10l49 -4l3 -47l12 -12zM753 257l129 -128l30 27l-129 129zM945 259l-61 62
q-13 13 -31 13t-31 -13l-19 -19l124 -123l19 19q12 13 12 30.5t-13 30.5z" />
    <glyph glyph-name="uniE601" unicode="&#xe601;" 
d="M555 719q3 8 3 17v30q0 19 -13 32t-31.5 13t-32 -13t-13.5 -32v-30q0 -8 4 -17q-126 -10 -230 -78t-164 -177.5t-60 -237.5q0 -13 2 -33q25 36 64 57t84 21q57 0 102.5 -32t64.5 -84q24 52 72 84t106.5 32t106.5 -32t71 -84q20 52 65.5 84t101.5 32q46 0 85 -21t64 -57
q1 19 1 33q0 128 -60 237.5t-164 177.5t-229 78zM468 -59q0 -25 -17.5 -42.5t-42.5 -17.5t-42.5 17.5t-17.5 42.5v30q-1 4 -3.5 9.5t-14 14.5t-27.5 9q-15 0 -26 -8.5t-15 -15.5t-4 -9v-30q0 -62 44 -106t106 -44t106 44t44 106v240h-90v-240z" />
    <glyph glyph-name="uniE602" unicode="&#xe602;" 
d="M512 -212q139 0 257 68.5t186.5 186.5t68.5 257t-68.5 257t-186.5 186.5t-257 68.5t-257 -68.5t-186.5 -186.5t-68.5 -257t68.5 -257t186.5 -186.5t257 -68.5zM453 639l135 2l-101 -293h264l-248 -406l58 307h-305z" />
    <glyph glyph-name="uniE603" unicode="&#xe603;" 
d="M278 608q12 -37 35.5 -50.5t47 0t35.5 50.5q6 3 11.5 11t6.5 16q4 26 -10 26q-2 28 -18.5 46.5t-47.5 18.5t-48 -17.5t-19 -47.5q-14 0 -11 -26q1 -8 6.5 -16t11.5 -11zM437 177v26q21 0 36.5 15t15.5 37v2l202 202q10 10 0 20t-20 0l-182 -183v173q0 28 -18.5 50
t-47.5 28l-28 6l-58 -117l-58 117l-28 -6q-28 -6 -46.5 -28t-18.5 -50v-214q0 -22 15 -37t37 -15v-26h199zM21 357q0 -60 42.5 -102.5t101.5 -42.5h2q-12 20 -12 43v20q-31 4 -51.5 27t-20.5 55v393q0 35 24 59t58 24h690q35 0 59 -24t24 -59v-393q0 -35 -24 -59t-59 -24
h-306l-30 -31q-3 -15 -12 -31h348q60 0 102.5 42.5t42.5 102.5v393q0 60 -42.5 102.5t-102.5 42.5h-690q-59 0 -101.5 -42.5t-42.5 -102.5v-393zM223 126h-107q-40 0 -67.5 -28t-27.5 -67v-125h297v125q0 39 -28 67t-67 28zM566 126h-108q-39 0 -66.5 -28t-27.5 -67v-125
h296v125q0 39 -27.5 67t-66.5 28zM909 126h-108q-39 0 -67 -28t-28 -67v-125h297v125q0 39 -27.5 67t-66.5 28z" />
    <glyph glyph-name="uniE604" unicode="&#xe604;" 
d="M871 738h-24q-59 0 -112 10t-85 22.5t-59 28.5t-34.5 22.5t-11.5 10.5l-21 22l-21 -22q-2 -3 -11 -10.5t-35 -23t-58.5 -28t-85.5 -22.5t-112 -10h-24l-30 1v-420q0 -39 6.5 -72.5t29 -78.5t60 -83.5t107 -81.5t164.5 -78l10 -4l10 4q95 35 164.5 78t107 81.5t60 83.5
t29 78.5t6.5 72.5v420zM492 210l-190 173l51 41l100 -76q6 6 16 16.5t41.5 39.5t62.5 55t73.5 56.5t79.5 49.5l20 -22h-1q-86 -75 -165 -183q-55 -76 -88 -150zM492 210z" />
    <glyph glyph-name="uniE605" unicode="&#xe605;" 
d="M511 748h-1v0q-91 0 -174 -35.5t-142.5 -95.5t-95 -143t-35.5 -174t35.5 -173.5t95 -142.5t142.5 -95.5t174 -35.5v0h1q91 0 174 35.5t142.5 95t95 142.5t35.5 174t-35.5 174t-95 143t-142.5 95.5t-174 35.5zM529 480q70 2 138 19q21 -84 23 -181h-161v162zM529 516v193
q36 -10 70.5 -56.5t57.5 -119.5q-63 -15 -128 -17zM493 710v-194q-66 2 -130 17q24 74 58.5 120.5t71.5 56.5zM493 480v-162h-163q2 97 24 181q68 -17 139 -19zM294 318h-195q6 137 93 243q61 -33 127 -53q-23 -89 -25 -190zM294 282q2 -100 25 -189q-66 -20 -127 -54
q-87 106 -93 243h195zM330 282h163v-161q-71 -2 -139 -19q-22 83 -24 180zM493 85v-194q-37 10 -71.5 56.5t-58.5 120.5q64 15 130 17zM529 -109v194q65 -2 128 -17q-23 -73 -57.5 -120t-70.5 -57zM529 121v161h161q-2 -96 -23 -180q-68 17 -138 19zM726 282h196
q-6 -137 -93 -243q-61 34 -128 54q23 89 25 189zM726 318q-2 101 -25 190q67 20 128 54q87 -107 93 -244h-196zM804 589q-54 -29 -112 -47q-33 104 -85 159q114 -28 197 -112zM413 701q-52 -55 -84 -158q-58 17 -112 46q83 84 196 112zM217 12q54 28 112 46q32 -103 84 -158
q-113 28 -196 112zM607 -100q53 55 85 158q58 -17 112 -46q-83 -85 -197 -112z" />
    <glyph glyph-name="uniE606" unicode="&#xe606;" 
d="M604 616h-439q-9 0 -15.5 6.5t-6.5 15.5t6.5 15t15.5 6h439q9 0 15 -6t6 -15t-6 -15.5t-15 -6.5zM165 58q-9 0 -15.5 6t-6.5 15v559q0 9 6.5 15t15.5 6t15 -6t6 -15v-559q0 -9 -6 -15t-15 -6zM165 -224q-67 0 -115 47.5t-48 114.5t48 115t115 48t114.5 -48t47.5 -115
t-47.5 -114.5t-114.5 -47.5zM164.5 58q-49.5 0 -84.5 -35t-35 -84.5t35 -84.5t84.5 -35t84.5 35t35 84.5t-35 84.5t-84.5 35zM859 -83h-442q-9 0 -15.5 6t-6.5 15t6.5 15.5t15.5 6.5h442q9 0 15.5 -6.5t6.5 -15.5t-6.5 -15t-15.5 -6zM859 -83q-9 0 -15 6t-6 15v559q0 9 6 15
t15 6t15.5 -6t6.5 -15v-559q0 -9 -6.5 -15t-15.5 -6zM859 475q-67 0 -114.5 48t-47.5 115t47.5 114.5t114.5 47.5t115 -47.5t48 -114.5t-48 -115t-115 -48zM859.5 757q-49.5 0 -84.5 -35t-35 -84.5t35 -84.5t84.5 -35t84.5 35t35 84.5t-35 84.5t-84.5 35z" />
    <glyph glyph-name="uniE607" unicode="&#xe607;" 
d="M829 618q-14 14 -30 27q1 4 -2 7l-10 7q-3 3 -6 0q-87 66 -193.5 84t-210.5 -14.5t-183 -110.5q-86 -86 -116.5 -201.5t0 -231t117 -202t202 -117t230.5 0t201.5 117t117 202t0 231t-116.5 201.5zM795 17q-77 -77 -180.5 -104.5t-206.5 0t-180 104.5t-104.5 180.5
t0 206.5t104.5 180q70 70 163 99t187.5 13t172.5 -74l-88 -112q-75 56 -171 49t-164 -75q-75 -76 -75 -183.5t75 -182.5q79 -79 191 -76q5 -10 13 -18q21 -21 50 -21t49 21q25 24 20 59q24 15 44 35q75 75 75 182.5t-75 183.5q-6 5 -13 11l88 112q13 -11 25 -23
q77 -77 104.5 -180t0 -206.5t-104.5 -180.5zM631 123q-20 21 -49 21t-50 -21q-27 -27 -19 -64q-101 -1 -173 70q-71 71 -71 171.5t71 171.5q64 63 153 70t160 -45l-123 -157q-28 12 -49 -9q-12 -12 -12.5 -30t12.5 -30.5t30.5 -12.5t30.5 12q11 11 12.5 26t-6.5 28l123 157
l1 1q6 -5 11 -10q71 -71 71 -171.5t-71 -171.5q-17 -16 -36 -29q-6 13 -16 23z" />
    <glyph glyph-name="uniE608" unicode="&#xe608;" 
d="M953 484l-302 -301l-221 -82l83 219l302 301q23 23 55.5 23t55.5 -23l27 -27q23 -23 23 -55t-23 -55zM497 168l132 49l8 7l-83 83l-7 -8zM582 334l82 -82l206 205l-82 82zM926 567l-28 27q-11 11 -27 11t-28 -11l-28 -28l83 -82l28 28q11 11 11 27t-11 28zM216 82v39h192
l-15 -39h-177zM437 198h-221v39h236zM216 469h195v-38h-195v38zM411 314h-195v39h195v-39zM645 121v-39h-190l105 39h85zM547 689v-142q0 -16 11.5 -27.5t27.5 -11.5h61l-39 -39h-22q-32 0 -55 23t-23 55v174h-350q-17 0 -28 -11t-11 -28v-736q0 -16 11 -27.5t28 -11.5h545
q16 0 27.5 11.5t11.5 27.5v273l39 39v-312q0 -32 -23 -54.5t-55 -22.5h-545q-33 0 -55.5 22.5t-22.5 54.5v736q0 33 22.5 55.5t55.5 22.5h292h10h20h55l176 -188l-28 -27z" />
    <glyph glyph-name="uniE609" unicode="&#xe609;" 
d="M782 553h-540q-9 0 -15 -6.5t-6 -15.5t6 -15t15 -6h540q9 0 15 6t6 15t-6 15.5t-15 6.5zM242 363h442q9 0 15 6t6 15t-6 15t-15 6h-442q-9 0 -15 -6t-6 -15t6 -15t15 -6zM782 258h-540q-9 0 -15 -6t-6 -15t6 -15.5t15 -6.5h540q9 0 15 6.5t6 15.5t-6 15t-15 6zM684 111
h-442q-9 0 -15 -6.5t-6 -15t6 -15t15 -6.5h442q9 0 15 6.5t6 15t-6 15t-15 6.5zM782 773h-35q-10 22 -30.5 35.5t-45.5 13.5h-66q-8 32 -34 53t-59 21t-59 -21t-34 -53h-66q-25 0 -45.5 -13.5t-30.5 -35.5h-24q-71 0 -125 -50.5t-54 -117.5v-564q0 -68 54 -118.5t125 -50.5
h529q70 0 119 49.5t49 119.5v564q0 69 -49 118.5t-119 49.5zM353 780h85q9 0 15.5 6t6.5 15q0 22 15 37t37 15t37 -15t15 -37q0 -9 6.5 -15t15.5 -6h85q17 0 28.5 -12t11.5 -28.5t-11.5 -28t-28.5 -11.5h-318q-17 0 -28.5 11.5t-11.5 28t11.5 28.5t28.5 12zM908 41
q0 -52 -37 -89t-89 -37h-529q-54 0 -95.5 37.5t-41.5 88.5v564q0 50 41.5 88t95.5 38h18q3 -32 26.5 -53t55.5 -21h318q32 0 55.5 21t26.5 53h29q52 0 89 -37t37 -89v-564z" />
    <glyph glyph-name="uniE60A" unicode="&#xe60a;" 
d="M535 -122q-1 -1 -2 -1q-10 -5 -23 -5q-4 0 -9 1q-7 1 -15 5v0q-80 33 -145.5 81t-109 99.5t-76 112.5t-50.5 116t-29 113.5t-14 101.5t-2.5 83.5t2 55.5t2.5 22q2 17 14 29.5t28 15.5q56 11 120 36t118 56t82.5 49t48.5 33q11 9 21 12q13 4 28 0q13 -3 23 -13
q22 -15 50.5 -33t83 -49t118 -55.5t119.5 -35.5q16 -3 28 -15.5t14 -29.5q1 -7 2.5 -22t2 -56t-2.5 -83.5t-14 -101t-29.5 -113.5t-51.5 -116t-76.5 -113t-109.5 -99.5t-146 -80.5zM912 632q-2 15 -12.5 26.5t-25.5 14.5q-134 25 -329 163q-9 8 -21 12q-13 3 -25 -1
q-10 -3 -18 -10q-18 -13 -44.5 -30t-75.5 -45.5t-106.5 -51.5t-107.5 -33q-14 -3 -24.5 -16t-12.5 -29q-2 -9 -3 -31.5t1 -78.5t11.5 -113t36 -130t66 -135t109 -121.5t159.5 -97.5h1q7 -4 13 -5h8q12 0 20 4q1 0 2 1q71 29 129.5 72.5t97.5 90t68.5 101.5t45.5 104.5
t25.5 102t12.5 91t2.5 75.5t-1.5 50t-2 20zM535 397l1 -1v-1v-286q0 -9 -7 -16t-17 -7t-17 7t-7 16v286v1l1 1q-42 9 -69 41.5t-27 75.5q0 50 35 84.5t84 34.5t84 -34.5t35 -84.5q0 -43 -27 -75.5t-69 -41.5zM512.5 586q-29.5 0 -50.5 -21t-21 -50.5t21 -50.5t50.5 -21
t50.5 21t21 50.5t-21 50.5t-50.5 21z" />
    <glyph glyph-name="uniE60B" unicode="&#xe60b;" 
d="M664 677v-47q117 -46 189.5 -150.5t72.5 -234.5q0 -112 -55.5 -207.5t-151 -150.5t-207.5 -55t-207.5 55t-151 150.5t-55.5 207.5q0 130 72.5 234.5t189.5 150.5v47q-136 -48 -220.5 -166t-84.5 -266q0 -93 36 -177.5t97.5 -146t146 -97.5t177.5 -36t178 36t146 97.5
t97 146t36 177.5q0 148 -84.5 266t-220.5 166zM512 376q9 0 15.5 7.5t6.5 17.5v386q0 11 -6.5 18t-15.5 7t-15.5 -7t-6.5 -18v-386q0 -10 6.5 -17.5t15.5 -7.5z" />
    <glyph glyph-name="uniE60C" unicode="&#xe60c;" 
d="M737 456h-346q-6 0 -10.5 -5t-4.5 -12t4.5 -12t10.5 -5h346q6 0 10.5 5t4.5 12t-4.5 12t-10.5 5zM272 439q0 -7 4 -12t10 -5h41q6 0 10 5t4 12t-4 12t-10 5h-41q-6 0 -10 -5t-4 -12zM737 267h-346q-6 0 -10.5 -5t-4.5 -12t4.5 -12t10.5 -5h346q6 0 10.5 5t4.5 12t-4.5 12
t-10.5 5zM327 267h-41q-6 0 -10 -5t-4 -12t4 -12t10 -5h41q6 0 10 5t4 12t-4 12t-10 5zM737 78h-346q-6 0 -10.5 -5t-4.5 -12t4.5 -12t10.5 -5h346q6 0 10.5 5t4.5 12t-4.5 12t-10.5 5zM327 78h-41q-6 0 -10 -5t-4 -12t4 -12t10 -5h41q6 0 10 5t4 12t-4 12t-10 5zM392 576
h241q14 0 24 10t10 25v86q0 14 -10 24t-24 10h-241q-14 0 -24 -10t-10 -24v-86q0 -15 10 -25t24 -10zM392 697h241v-86h-241v86zM839 731h-138v-34h138q21 0 36 -15.5t15 -36.5v-687q0 -22 -15 -37t-36 -15h-653q-21 0 -36.5 15t-15.5 37v687q0 21 15.5 36.5t36.5 15.5h137
v34h-137q-36 0 -61 -25t-25 -61v-687q0 -36 25 -61t61 -25h653q35 0 60.5 25t25.5 61v687q0 36 -25.5 61t-60.5 25z" />
    <glyph glyph-name="uniE60D" unicode="&#xe60d;" 
d="M396 125q-11 -6 -30.5 -15t-71 -27.5t-94.5 -24.5q-142 -38 -159 -137l-1 -85l621 -1q13 -3 23 -19h38l-6 11q-3 7 -18 20.5t-33 18.5h-589v55q1 3 3 8t12 20t23.5 28t39.5 28t59 25q48 10 113.5 33t94.5 45v117l-104 131q-2 2 -4 4.5t-8 10.5t-10 15.5t-7 18t-2 19.5
t8 18.5t21 16.5q-11 33 -26 55q-1 7 0 29t3 41l1 18q1 4 3 10t8.5 22.5t14.5 29.5t21 24.5t28 14.5v67q5 1 13.5 2t34.5 2t51.5 -1.5t60 -12.5t63.5 -27q2 0 14 -3.5t30.5 -12.5t36.5 -20.5t32.5 -30t16.5 -39.5l1 -165q2 -1 5.5 -3.5t9 -12t6 -21t-9.5 -31t-32 -41.5
q-1 -1 -8.5 -7t-12.5 -11t-14.5 -14t-18 -18.5t-17.5 -21.5t-17.5 -26.5t-15.5 -30.5v-115q1 -2 3 -4t13.5 -9.5t29.5 -15.5t55.5 -18.5t87.5 -20.5q15 -4 36 -12.5t50 -23.5t51 -37t27 -46l-1 -60h-177l-1 -25h205v96q-1 3 -3.5 9t-15.5 23t-30.5 33t-51.5 34.5t-77 32.5
q-147 30 -176 56v98q3 7 8.5 18t29 41.5t52.5 55.5l4 5q5 5 10.5 11t12.5 16t13 19.5t10 21.5t4.5 22.5t-4 22t-13.5 21.5v160q0 3 -0.5 8.5t-6.5 21.5t-17.5 30.5t-37.5 31.5t-63 28q-1 0 -14.5 6t-26.5 12l-12 6q-16 24 -230 24v-82q-2 -2 -7 -4.5t-17 -13.5t-22 -23
t-18.5 -32.5t-10.5 -43.5l-4 -94q19 -32 19 -44q-3 -1 -6.5 -3.5t-10 -13t-7 -24t9.5 -37t34 -50.5q5 -5 46.5 -59t48.5 -60v-92z" />
    <glyph glyph-name="uniE60E" unicode="&#xe60e;" 
d="M382 583q-5 7 -13.5 9t-15.5 -2.5t-9 -13t3 -15.5l130 -162h-143q-8 0 -14.5 -6t-6.5 -14.5t6.5 -15t14.5 -6.5h159v-25h-159q-8 0 -14.5 -6t-6.5 -15t6.5 -15t14.5 -6h159v-136q0 -8 6 -14t14.5 -6t14.5 6t6 14v136h159q9 0 15 6.5t6 15t-6 14.5t-15 6h-159v25h159
q9 0 15 6.5t6 15t-6 14.5t-15 6h-142l130 162q5 7 3 15.5t-9.5 13t-15.5 2.5t-13 -9l-132 -166zM922 746q-64 0 -127.5 15t-106 33t-81.5 41t-52 33t-19 15q-11 9 -24.5 8t-22.5 -12q-28 -37 -79 -64t-108.5 -40.5t-107 -20t-92.5 -6.5q-13 0 -23 -9q-9 -10 -9 -24v-378
q0 -60 42 -140.5t105 -151t144.5 -119.5t153.5 -49q60 0 125.5 32.5t120 84t99 111.5t69.5 118.5t25 101.5v388q0 14 -9.5 23.5t-22.5 9.5zM922 325q0 -42 -41 -112.5t-100 -137.5t-133 -116t-133 -49q-57 0 -131.5 48.5t-135.5 116t-103.5 141t-42.5 121.5v372q38 2 85.5 9
t111 21t123 42t97.5 65q33 -24 86.5 -51.5t143 -55.5t173.5 -32v-382z" />
    <glyph glyph-name="uniE60F" unicode="&#xe60f;" 
d="M43 810v-852q0 -18 12.5 -30.5t30.5 -12.5h852q18 0 30.5 12.5t12.5 30.5v852q0 18 -12.5 30.5t-30.5 12.5h-852q-18 0 -30.5 -12.5t-12.5 -30.5zM277 180l-75 75q-6 6 -15 6t-15 -6t-6 -15t6 -15l75 -76l-75 -75q-6 -6 -6 -15t6 -15t15 -6t15 6l75 75l76 -75q6 -6 15 -6
t15 6t6 15t-6 15l-75 75l75 76q6 6 6 15t-6 15t-15 6t-15 -6zM256 640h-107q-8 0 -14.5 -6.5t-6.5 -15t6.5 -15t14.5 -6.5h107v-106q0 -9 6.5 -15.5t15 -6.5t15 6.5t6.5 15.5v106h106q9 0 15.5 6.5t6.5 15t-6.5 15t-15.5 6.5h-106v107q0 8 -6.5 14.5t-15 6.5t-15 -6.5
t-6.5 -14.5v-107zM0 810q0 36 25 61t61 25h852q36 0 61 -25t25 -61v-852q0 -36 -25 -61t-61 -25h-852q-36 0 -61 25t-25 61v852zM555 618.5q0 8.5 6 15t15 6.5h256q9 0 15 -6.5t6 -15t-6 -15t-15 -6.5h-256q-9 0 -15 6.5t-6 15zM555 234.5q0 8.5 6 15t15 6.5h256
q9 0 15 -6.5t6 -15t-6 -15t-15 -6.5h-256q-9 0 -15 6.5t-6 15zM555 64q0 9 6 15t15 6h256q9 0 15 -6t6 -15t-6 -15t-15 -6h-256q-9 0 -15 6t-6 15z" />
    <glyph glyph-name="uniE610" unicode="&#xe610;" 
d="M617 434h34v-33h-34v33zM617 202h34v-33h-34v33zM825 419q0 3 0.5 8t-0.5 20.5t-3.5 31.5t-8.5 37t-14.5 40t-24 39t-35 35t-48 26.5t-62.5 16.5q-38 3 -71 -3t-56.5 -19t-43.5 -29t-32 -33.5t-20.5 -31.5t-12.5 -23l-3 -9q-2 2 -6.5 5t-18 10t-27.5 9.5t-35.5 -0.5
t-42.5 -15q-59 -35 -56 -106l1 -8q-6 -1 -16 -4t-35.5 -16t-45.5 -30.5t-36 -51t-16 -75.5q1 -30 10.5 -54.5t23 -39.5t32 -26.5t33.5 -16.5t31.5 -8t22 -3.5t9.5 -0.5h581q4 0 9 0.5t21 3t30.5 7.5t33 15.5t32.5 24.5t26 37.5t16 52.5q8 116 -98 168q-24 12 -44 16z
M719 169q0 -14 -10 -24t-24 -10h-305q-14 0 -24 10t-10 24v33q0 13 10 23t24 10h305q14 0 24 -10t10 -23v-33zM719 285q0 -14 -10 -24t-24 -10h-305q-14 0 -24 10t-10 24v33q0 13 10 23t24 10h305q14 0 24 -10t10 -23v-33zM719 401q0 -14 -10 -24t-24 -10h-305q-14 0 -24 10
t-10 24v33q0 13 10 23t24 10h305q14 0 24 -10t10 -23v-33zM617 318h34v-33h-34v33z" />
    <glyph glyph-name="uniE611" unicode="&#xe611;" 
d="M316.5 7q-6.5 6 -6.5 15t7 16l2 2l342 342l-342 342q-1 1 -2 3q-7 6 -7 15t6.5 15t15.5 6t15 -6l2 -2h1l357 -358v0v0q6 -6 6 -15t-6 -15l-357 -358l-1 1q-1 -2 -2 -3q-6 -6 -15 -6t-15.5 6z" />
    <glyph glyph-name="uniE612" unicode="&#xe612;" 
d="M707 7q6 6 6 15t-6 16q-1 1 -3 2h1l-343 342l343 342h-1q2 1 3 3q6 6 6 15t-6 15t-15 6t-16 -6l-2 -2l-357 -358v0v0q-7 -6 -7 -15t7 -15l357 -358v1q1 -2 2 -3q7 -6 16 -6t15 6z" />
    <glyph glyph-name="uniE613" unicode="&#xe613;" 
d="M607 265l-96 247l-104 -197l-59 60l-98 -62l27 -16l64 40l76 -79l88 167l98 -252l84 175l33 -72l38 6l-71 151zM898 75v510q0 14 -9 24t-23 10h-707q-14 0 -23 -10t-9 -24v-510h-104v-43q0 -14 9 -24t22 -10h105h707h108q13 0 22.5 10t9.5 24v43h-108v0zM579 60h-130v23
h130v-23zM833 117h-641v431h641v-431v0zM833 117z" />
    <glyph glyph-name="uniE614" unicode="&#xe614;" 
d="M886.5 187q-6.5 -6 -15 -6t-15.5 6l-2 2l-342 342l-342 -342h-1l-2 -2q-6 -6 -15 -6t-15.5 6t-6.5 15t7 15q1 2 2 3l357 357v0v0q7 7 16 7t15 -7l357 -357q2 -1 3 -3q6 -6 6 -15t-6.5 -15z" />
    <glyph glyph-name="uniE615" unicode="&#xe615;" 
d="M116 570l23 22l373 -372l373 372l23 -22l-396 -396z" />
    <glyph glyph-name="uniE616" unicode="&#xe616;" 
d="M810 581h-605q-34 0 -58.5 24t-24.5 59q0 34 24.5 58t58.5 24h605q34 0 58 -24t24 -58q0 -35 -24 -59t-58 -24zM810 306h-605q-34 0 -58.5 24t-24.5 59q0 34 24.5 58t58.5 24h605q34 0 58 -24t24 -58q0 -35 -24 -59t-58 -24zM810 22h-605q-34 0 -58.5 24t-24.5 58
q0 35 24.5 59t58.5 24h605q34 0 58 -24t24 -59q0 -34 -24 -58t-58 -24z" />
    <glyph glyph-name="uniE617" unicode="&#xe617;" 
d="M512 733q-90 0 -172.5 -35t-142.5 -95t-95 -142.5t-35 -172.5t35 -172.5t95 -142.5t142.5 -95t172.5 -35t172.5 35t142.5 95t95 142.5t35 172.5t-35 172.5t-95 142.5t-142.5 95t-172.5 35zM911 288q0 -108 -53.5 -200t-145.5 -145.5t-200 -53.5t-200 53.5t-145.5 145.5
t-53.5 200t53.5 200t145.5 145.5t200 53.5t200 -53.5t145.5 -145.5t53.5 -200zM498.5 458q20.5 0 35 14.5t14.5 35t-14.5 35t-34.5 14.5q-21 0 -35.5 -14.5t-14.5 -35t14.5 -35t35 -14.5zM544 396h-127v-21h54v-328h-54v-20h182v20h-55v349z" />
    <glyph glyph-name="uniE618" unicode="&#xe618;" 
d="M986 487l-112 -312q-11 -33 -39.5 -53t-63.5 -20h-434q-39 0 -69 25t-38 63l-74 373l-24 111h-81q-10 0 -17 7t-7 16.5t7 16.5t17 7h100h1h1q2 -1 5 -1l4 -2q1 -1 3 -2.5t3.5 -3t2.5 -3.5l2 -4q0 -1 1 -1v-1l24 -112h715q40 0 63 -33t10 -71v0zM938 531q-10 13 -25 13
h-705l68 -344q4 -22 21.5 -36.5t39.5 -14.5h434q20 0 36.5 11.5t22.5 30.5l111 312q6 15 -3 28zM320 51q39 0 67 -27.5t28 -66.5t-28 -66.5t-67 -27.5t-66.5 27.5t-27.5 66.5t27.5 66.5t66.5 27.5zM320 -91q20 0 34 14t14 34t-14 34t-33.5 14t-33.5 -14t-14 -34t14 -34
t33 -14zM738 51q39 0 67 -27.5t28 -66.5t-28 -66.5t-67 -27.5t-66.5 27.5t-27.5 66.5t27.5 66.5t66.5 27.5zM738 -91q20 0 34 14t14 34t-14 34t-34 14t-34 -14t-14 -34t14 -34t34 -14z" />
    <glyph glyph-name="uniE619" unicode="&#xe619;" 
d="M885 716h-54v-55h40q40 0 68.5 -28.5t28.5 -68.5v-558q0 -40 -28.5 -68.5t-68.5 -28.5h-718q-40 0 -68.5 28.5t-28.5 68.5v558q0 40 28.5 68.5t68.5 28.5h38v55h-52q-57 0 -98 -41t-41 -99v-583q0 -57 41 -98t98 -41h746q57 0 98 41t41 98v583q0 58 -41 99t-98 41z
M384 716h253v-55h-253v55zM277 588h22q8 0 14.5 6t6.5 15v149q0 9 -6.5 15.5t-14.5 6.5h-22q-9 0 -15 -6.5t-6 -15.5v-149q0 -9 6 -15t15 -6zM725 588h21q9 0 15.5 6t6.5 15v149q0 9 -6.5 15.5t-15.5 6.5h-21q-9 0 -15.5 -6.5t-6.5 -15.5v-149q0 -9 6.5 -15t15.5 -6z
M255 300h66q13 0 22 9t9 22v66q0 13 -9 22t-22 9h-66q-13 0 -22 -9t-9 -22v-66q0 -13 9 -22t22 -9zM576 397q0 13 -9 22t-22 9h-66q-13 0 -22 -9t-9 -22v-66q0 -13 9 -22t22 -9h66q13 0 22 9t9 22v66zM702 300h66q13 0 22 9t9 22v66q0 13 -9 22t-22 9h-66q-13 0 -22 -9
t-9 -22v-66q0 -13 9 -22t22 -9zM255 76h66q13 0 22 9t9 22v67q0 12 -9 21t-22 9h-66q-13 0 -22 -9t-9 -21v-67q0 -13 9 -22t22 -9zM545 204h-66q-13 0 -22 -9t-9 -21v-67q0 -13 9 -22t22 -9h66q13 0 22 9t9 22v67q0 12 -9 21t-22 9zM702 76h66q13 0 22 9t9 22v67q0 12 -9 21
t-22 9h-66q-13 0 -22 -9t-9 -21v-67q0 -13 9 -22t22 -9z" />
    <glyph glyph-name="uniE61A" unicode="&#xe61a;" 
d="M644 -209q-21 0 -38 14q-10 9 -16 19q-3 5 -5 10q-9 24 -30 41q-18 16 -42.5 16.5t-44.5 -16.5q-22 -18 -31 -41t-29 -34q-31 -17 -79 -3q-20 6 -39 14q-22 9 -39 21q-18 13 -29 28q-10 14 -11 33q-1 18 11 42q7 16 6 39q-2 19 -19 37q-7 9 -19 11q-13 3 -26 3h-5
q-18 -1 -36 -7q-26 -7 -51 3q-19 7 -34 30q-11 17 -21 38q-8 21 -13 43q-6 25 -3 43q6 40 41 53q23 9 43 32q17 19 17 43t-17 41q-19 22 -44 32q-19 6 -31 29q-10 19 -10 38q0 17 5 38q5 18 12 36q8 18 19 34q13 18 28 28q14 8 30 8h6q11 -1 23 -5q25 -10 51 -7q23 3 42 21
q6 7 10 18q5 15 6 28q1 15 0 26q-1 9 -2 17l-4 16q-3 18 4 34q9 21 33 37q19 12 41 21q20 8 40 12q21 4 35 4q27 0 44 -19q12 -13 17 -28q7 -19 27 -35q19 -15 43.5 -14.5t44.5 14.5q20 15 28 37q8 15 20 28q18 17 40 17q18 0 39 -5q19 -4 38 -13q21 -8 38 -23
q18 -14 29 -32t7 -40q-3 -15 -7 -22q-9 -20 -5 -44q3 -23 21 -40q17 -17 41 -19q29 -2 52 9q11 7 29 7h7q23 -2 39 -18q20 -18 34 -54q14 -33 18 -66q4 -31 -12 -51q-13 -17 -29 -23q-24 -8 -42 -30q-16 -19 -16 -44.5t14 -43.5q13 -18 35 -26q3 -2 5 -2q9 -5 16 -11
q19 -16 26 -40q4 -21 0 -44q-4 -20 -12 -41q-9 -21 -21 -39q-15 -20 -34 -30q-32 -16 -67 -3q-6 1 -20 4q-11 2 -24 1q-13 -2 -25 -6q-8 -2 -14 -9q-19 -19 -21 -41q-3 -25 6 -47q18 -35 -5 -70q-10 -14 -28 -26q-15 -10 -34 -18q-18 -9 -39 -13.5t-38 -4.5zM164 87
q20 0 40 -5q30 -7 50 -29q31 -33 35 -74q3 -39 -12 -70q-5 -10 -5 -13q5 -7 15 -14q12 -8 27 -14q16 -7 32 -12q24 -7 32 -2q16 41 51 69q37 30 84 29.5t82 -30.5q31 -25 45 -61q2 -3 3 -6l3 -3q9 0 22 3q15 4 28 10q14 6 25 13q9 6 12 10t0 9q-17 39 -12 80q5 43 37 77
q16 17 40 25q19 6 39 8t39 -1q18 -3 30 -7q8 -3 12 -3q2 0 7.5 3t11.5 11q8 12 14 26q6 15 8 29q3 13 2 20q-1 0 -1 1l-4 4l-6 4q-38 15 -62 47q-25 35 -25 80q0 46 30 83q28 35 68 49l2 3l-1 5q-3 25 -14 51q-9 23 -19 33l-4 1q-40 -19 -85 -16q-48 3 -80 36q-32 32 -39 75
q-6 42 11 80q0 2 1 5q-5 8 -14 15q-11 9 -23 14q-14 6 -29 10q-11 3 -21 3q-5 -5 -6 -9q-14 -36 -49 -62q-36 -26 -82.5 -25.5t-80.5 27.5q-32 26 -46 61q-2 6 -5 10q-1 -1 -20 -5q-15 -3 -31 -9q-15 -6 -29 -15q-7 -5 -10 -10q1 -6 2 -9q1 -2 1 -5q2 -8 3 -22q2 -17 0 -38
q-2 -20 -8 -42q-8 -25 -26 -43q-34 -32 -77 -38q-42 -5 -80 10q-3 1 -7 2q-4 -4 -8 -10q-8 -10 -13 -23q-6 -14 -9 -27q-4 -13 -4 -23q0 -4 3 -10h-1l-1 1q39 -16 68 -48q33 -35 33 -83q0 -47 -32 -84q-29 -34 -67 -49l-2 -4q-1 -8 2 -21q3 -16 10 -31q7 -16 15 -29
q3 -5 6 -7q4 -1 7 -1q30 8 54 9q4 1 8 1zM510.5 47q-52.5 0 -99 20t-81 55t-54.5 80q-20 47 -20 99.5t20 99.5q20 46 55 80q34 35 80.5 54.5t99.5 19.5t99 -20q47 -19 82 -54q35 -34 54.5 -80.5t19.5 -99t-20 -99.5q-19 -45 -54 -80.5t-82 -55t-99.5 -19.5zM511 494
q-40 0 -75 -15q-36 -15 -62 -41q-26 -27 -41 -62t-15 -74q0 -40 15 -75t41 -62t62 -42q35 -15 75 -15t75 15q36 15 62.5 41.5t41.5 62.5q15 35 15 75t-15 74q-15 35 -41.5 61.5t-62 41.5t-75.5 15z" />
    <glyph glyph-name="uniE61B" unicode="&#xe61b;" 
d="M336 179l176 216l175 -216h-351zM336 179z" />
    <glyph glyph-name="uniE61C" unicode="&#xe61c;" 
d="M687 395l-175 -216l-176 216h351z" />
    <glyph glyph-name="uniE61D" unicode="&#xe61d;" 
d="M493 718h-211q-49 0 -90.5 -20t-56.5 -52v-669q6 -41 48 -68.5t99 -27.5h607v837h-396zM469 670v-325l-55 55q-7 7 -17 7t-17 -7l-54 -55v325h143zM842 -71h-560q-40 0 -70 18t-30 42t30 42t70 18h560v-120zM282 96q-57 0 -100 -28v550q4 20 31 35.5t65 16.5v-382
q0 -16 14.5 -22.5t26.5 5.5l78 79l79 -79q7 -7 17 -7q5 0 9 2q15 6 15 22v382h325v-574h-560z" />
    <glyph glyph-name="uniE61E" unicode="&#xe61e;" 
d="M525 385l393 395q5 5 5 12.5t-5 13t-13 5.5t-13 -5l-393 -395l-392 395q-6 5 -13.5 5t-13 -5.5t-5.5 -13t5 -12.5l393 -395l-393 -394q-5 -6 -5 -13.5t5.5 -13t13 -5.5t13.5 6l392 394l393 -394q5 -6 13 -6t13 5.5t5 13t-5 13.5z" />
    <glyph glyph-name="uniE61F" unicode="&#xe61f;" 
d="M512 896q-104 0 -198.5 -40.5t-163 -109t-109 -163t-40.5 -198.5t40.5 -199t109 -163.5t163 -109t198.5 -40.5t198.5 40.5t163 109t109 163.5t40.5 199t-40.5 198.5t-109 163t-163 109t-198.5 40.5zM747 344h-511v102h511v-102z" />
    <glyph glyph-name="uniE620" unicode="&#xe620;" 
d="M512 896q-104 0 -198.5 -40.5t-163 -109t-109 -163t-40.5 -198.5t40.5 -199t109 -163.5t163 -109t198.5 -40.5t198.5 40.5t163 109t109 163.5t40.5 199t-40.5 198.5t-109 163t-163 109t-198.5 40.5zM747 344h-197v-205h-104v205h-210v102h213v188h101v-188h197v-102z" />
    <glyph glyph-name="uniE621" unicode="&#xe621;" 
d="M835 740h-646q-26 0 -44 -18.5t-18 -43.5v-782q0 -25 18 -43t44 -18h646q26 0 44 18t18 43v782q0 25 -18 43.5t-44 18.5zM862 -82q0 -19 -13.5 -32.5t-32.5 -13.5h-607q-20 0 -33.5 13.5t-13.5 32.5v738q0 19 13.5 32.5t33.5 13.5h607q19 0 32.5 -13.5t13.5 -32.5v-738z
M784 196q0 -8 -5 -13t-13 -5h-508q-8 0 -13 5.5t-5 12.5t5.5 12t12.5 5h508q8 1 13 -4.5t5 -12.5v0zM784 -4q0 -7 -5 -12t-13 -5h-508q-8 0 -13 5t-5 12q0 8 5.5 13t12.5 5h508q8 0 13 -5t5 -13v0zM784 595q0 -9 -6 -15t-15 -6h-211q-8 0 -14.5 6t-6.5 15t6.5 15t14.5 6h211
q9 0 15 -6t6 -15v0zM784 395q0 -8 -6 -14.5t-15 -6.5h-211q-8 0 -14.5 6.5t-6.5 14.5q0 9 6.5 15t14.5 6h211q9 0 15 -6t6 -15v0zM449 450h-80v74h80q8 0 13.5 5.5t5.5 13t-5.5 13t-13.5 5.5h-31l36 35q5 6 5 13.5t-5 12.5t-12.5 5t-12.5 -5l-62 -61h-32l-61 61
q-6 5 -13.5 5t-12.5 -5t-5 -12.5t5 -13.5l36 -35h-32q-8 0 -13 -5.5t-5 -13t5 -13t13 -5.5h80v-74h-80q-8 0 -13 -5.5t-5 -13t5 -13t13 -5.5h80v-92q0 -8 5.5 -13.5t13 -5.5t13 5.5t5.5 13.5v92h80q8 0 13.5 5.5t5.5 13t-5.5 13t-13.5 5.5zM449 450z" />
    <glyph glyph-name="uniE622" unicode="&#xe622;" 
d="M98 118v28q1 11 2 11q5 61 31 117q36 78 108 139q85 72 135 133q3 3 10 3q43 1 126 1h124q7 0 13 -6q66 -69 82 -84q14 -13 50.5 -45t55.5 -51q87 -89 91 -216q1 -31 -4 -70q-12 -91 -75 -162q-65 -73 -180 -107q-122 -35 -253 -12q-162 28 -251 145q-50 65 -61 141
q0 2 -4 35zM550 85h9q64 1 74 1q22 1 24 21q1 9 -4.5 16t-14.5 9q-7 2 -15 2h-62h-12v17q1 4 4 7q4 4 86 83l7 7q10 14 3 25q-10 17 -27 13q-13 -2 -22 -10q-11 -9 -76 -65q-1 -1 -3.5 -3t-3.5 -3l1 1v1q-62 57 -69 64q-14 13 -31 18q-12 3 -21.5 -3.5t-9.5 -18.5
q0 -16 14 -30q15 -15 44.5 -43.5t34.5 -34.5q3 -3 3 -5q0 -3 -1 -21h-9h-70q-10 -1 -17.5 -7.5t-8.5 -15.5q-1 -11 6.5 -18t20.5 -7h70h8v-39h-4h-4h-4h-68q-11 0 -18 -6.5t-7 -16.5q-1 -19 23 -21h9h31h33q1 0 9 -1v-18q1 -19 12 -25q20 -12 38 -4q18 9 17 30v18h50
q29 0 40 1q19 1 18 21t-20 22q-9 1 -54 1h-33v38zM508 602h-115q-7 0 -11 5q-24 38 -45 67q-14 20 -55 51q-16 12 -19 30q-2 11 5.5 20t19.5 9q7 0 30 -5l12 -3q8 -2 11 -3q22 -6 42 11q17 12 27 19q16 10 35 8t33 -15q7 -7 28 -20q4 -2 10 2q12 9 25 20q33 29 79 -2
q3 -2 11 -9q24 -23 58 -10q17 6 25 8q14 3 25.5 -3.5t13.5 -18.5q3 -13 -10 -29q-6 -8 -12 -12q-29 -16 -62 -62q-10 -14 -35 -53q-4 -5 -11 -5h-115zM508 602z" />
    <glyph glyph-name="uniE623" unicode="&#xe623;" 
d="M317 471q-10 0 -17 -7.5t-7 -17.5v-365q0 -11 7 -18t17 -7t17 7t7 18v365q0 10 -7 17.5t-17 7.5zM634 471q-56 0 -98 -38v13q0 10 -7 17.5t-17 7.5t-17 -7.5t-7 -17.5v-365q0 -11 7 -18t17 -7t17 7t7 18v134q42 -37 98 -37q60 0 103 43t43 103.5t-43 103.5t-103 43z
M634 227q-40 0 -69 28.5t-29 69t29 69t69 28.5t68.5 -28.5t28.5 -69t-28.5 -69t-68.5 -28.5zM512 812q-104 0 -199 -40.5t-163.5 -109t-109 -163.5t-40.5 -199t40.5 -199t109 -163.5t163.5 -109t199 -40.5t199 40.5t163.5 109t109 163.5t40.5 199t-40.5 199t-109 163.5
t-163.5 109t-199 40.5zM512 -164q-94 0 -180 36.5t-148.5 99t-99 148.5t-36.5 180t36.5 180t99 148.5t148.5 99t180 36.5t180 -36.5t148.5 -99t99 -148.5t36.5 -180t-36.5 -180t-99 -148.5t-148.5 -99t-180 -36.5z" />
    <glyph glyph-name="uniE624" unicode="&#xe624;" 
d="M642 603v93h-261v-93h-317v-710h895v710h-317zM418 659h187v-56h-187v56zM922 -70h-821v299h280v-74h261v74h280v-299zM418 192v112h187v-112h-187zM922 267h-280v74h-261v-74h-280v298h280h261h280v-298z" />
    <glyph glyph-name="uniE625" unicode="&#xe625;" 
d="M788 -118h-780l-1 13q0 20 1 134q1 48 1 58l1 4q5 16 18.5 28t24 16.5t30.5 11.5q15 5 23 8q14 6 47 20q51 22 71 31l31 8q9 8 25 42l5 11l7 1q-1 2 -4 4q-8 10 -11 18l-1 3l-5 52q-8 2 -11 4q-23 14 -28 85v10q-1 7 5 19q5 9 4 15q-18 83 3.5 137.5t64.5 67.5
q55 23 94 23q42 0 76 -21l14 -13l24 -5q17 -9 26 -37q8 -32 7 -80q0 -4 -1 -20q-4 -41 -3 -50q0 -6 3 -11q3 -4 4 -7q11 -24 4 -66q-5 -23 -13 -36q-5 -6 -16 -12q-6 -3 -7 -5q-3 -5 -4 -22t-3 -25q-3 -10 -13 -20q-3 -4 -4 -7l12 -1l6 -12q16 -34 25 -42l30 -8
q25 -10 72 -31q34 -14 48 -20q7 -3 23 -8q19 -7 29.5 -11.5t24 -16.5t19.5 -28v-4q0 -4 1 -58q1 -114 1 -134v-13zM33 -92h729q1 28 -1 120v57q-4 10 -13.5 17.5t-18 11t-25.5 8.5q-16 6 -24 10q-16 6 -48 20l-70 30l-35 10q-15 10 -34 52l-26 4l1 11q1 18 14 33q6 7 7 12
q2 5 3 18q1 23 7 34q4 8 17 15q6 3 7 4q5 8 9 26q6 34 -2 50l-3 6q-6 9 -7 20t3 55q2 16 2 19q1 44 -6 72q-5 15 -13 21l-25 4l-18 17q-26 16 -60 16t-86 -22q-33 -10 -49.5 -57t-1.5 -119q3 -15 -6 -33l-3 -4l1 -10q4 -58 16 -65l4 -1q4 -1 5 -1l-1 -12l1 -1l13 1l5 -60
q2 -2 6 -7q12 -13 15 -28l2 -12l-21 -5q-20 -43 -34 -53l-4 -2l-33 -9q-20 -8 -69 -29q-33 -14 -47 -20q-8 -4 -25 -9.5t-25 -9t-17.5 -11t-13.5 -17.5q0 -7 -1 -57q-1 -87 -1 -120zM1016 -70h-195v34q-1 30 -1 144v2q-5 14 -17.5 24.5t-22.5 15t-29 10.5q-16 6 -23 9
q-14 6 -45 19q-18 8 -43 18l-14 6l9 13q5 7 13 25l4 9q-5 5 -7 11l-1 4l-3 34l-6 3q-18 11 -22 63v7q-1 7 4 16q3 5 2 8q-13 61 3 100.5t48 50.5q40 16 69 16q30 0 55 -15l10 -9l18 -4q13 -7 20 -29q6 -24 5 -58q0 -3 -1 -15q-3 -29 -2 -34q0 -4 2 -6l3 -6q9 -18 3 -49
q-3 -18 -10 -27q-4 -5 -13 -10q-3 -1 -3 -2q-2 -3 -2 -14q-1 -13 -3 -19q-2 -8 -9 -15l5 -1l5 -10q11 -23 16 -28l21 -6q19 -7 52 -22q22 -9 33 -14q5 -2 17 -6q14 -5 22 -8.5t18 -12t14 -21.5l1 -4v-49q1 -119 1 -136zM846 -45h145q0 22 -1 122v48q-6 13 -38 24
q-12 4 -18 7q-11 5 -33 14q-35 15 -51 21l-25 8q-11 7 -25 37l-19 2v12q1 14 11 26q4 4 5 7t1 12q1 17 5 25t15 13q3 1 3 2q3 4 6 16q4 24 -1 34q-1 1 -2 4q-5 7 -6 16q0 8 3 40q1 11 1 13q0 31 -5 50q-2 8 -7 13l-17 3l-14 12q-17 10 -40 10q-24 0 -60 -14q-23 -8 -34 -40
t-1 -82q3 -12 -4 -26l-2 -2l1 -6q2 -39 9 -43q1 -1 5 -1v-13l13 1l4 -42q0 -1 3 -4q9 -10 11 -22l2 -11l-16 -5l-6 -12q12 -5 27 -12q36 -15 47 -20l21 -7q22 -8 34 -13.5t28 -19.5t23 -34l1 -10q0 -112 1 -143v-10z" />
    <glyph glyph-name="uniE626" unicode="&#xe626;" 
d="M625 311h-207q-32 0 -55.5 23.5t-23.5 56.5v206q0 33 23.5 56t55.5 23h207q32 0 55.5 -23t23.5 -56v-206q0 -33 -23.5 -56.5t-55.5 -23.5zM418 637q-16 0 -27.5 -12t-11.5 -28v-206q0 -17 11.5 -28.5t27.5 -11.5h207q16 0 27.5 11.5t11.5 28.5v206q0 16 -11.5 28
t-27.5 12h-207zM522 -109q-54 0 -92 38t-38 92t38 92.5t92 38.5t92 -38.5t38 -92.5t-38 -92t-92 -38zM522 112q-37 0 -64 -27t-27 -64t27 -63.5t64 -26.5t64 26.5t27 63.5t-27 64t-64 27zM883.5 -109q-53.5 0 -92 38t-38.5 92t38.5 92.5t92 38.5t92 -38.5t38.5 -92.5
t-38.5 -92t-92 -38zM883.5 112q-37.5 0 -64 -27t-26.5 -64t26.5 -63.5t64 -26.5t64 26.5t26.5 63.5t-26.5 64t-64 27zM154.5 -109q-53.5 0 -92 38t-38.5 92t38.5 92.5t92 38.5t92 -38.5t38.5 -92.5t-38.5 -92t-92 -38zM154.5 112q-37.5 0 -64 -27t-26.5 -64t26.5 -63.5
t64 -26.5t64 26.5t26.5 63.5t-26.5 64t-64 27zM502 331h40v-199h-40v199zM903 132h-39v79h-690v-79h-39v119h768v-119z" />
    <glyph glyph-name="uniE627" unicode="&#xe627;" 
d="M527 765q-91 0 -174 -35.5t-143 -95.5t-95.5 -143t-35.5 -174t35.5 -174t95.5 -143t143 -95.5t174 -35.5t174 35.5t143 95.5t95.5 143t35.5 174t-35.5 174t-95.5 143t-143 95.5t-174 35.5zM527 -106q-115 0 -212 56.5t-154 154t-57 212.5t57 212t154 154t212 57
t212.5 -57t154 -154t56.5 -212t-56.5 -212.5t-154 -154t-212.5 -56.5zM701 513l-170 -169l-168 169l-30 -30l168 -169l-168 -168l30 -30l168 168l168 -169l31 31l-169 168l170 169z" />
    <glyph glyph-name="uniE628" unicode="&#xe628;" 
d="M512 748q-91 0 -174 -35.5t-143 -95.5t-95.5 -143t-35.5 -174t35.5 -174t95.5 -143t143 -95.5t174 -35.5t173.5 35.5t142.5 95.5t96 143t36 174t-36 174t-96 143t-142.5 95.5t-173.5 35.5zM512 -105q-110 0 -203.5 54.5t-148 147.5t-54.5 203t54.5 203.5t148 148
t203.5 54.5t203 -54.5t147.5 -148t54.5 -203.5t-54.5 -203t-147.5 -147.5t-203 -54.5zM533 578h-43v-256h-256v-43h256v-235h43v235h235v43h-235v256z" />
    <glyph glyph-name="uniE629" unicode="&#xe629;" 
d="M753 149h-542q-62 0 -106.5 44.5t-44.5 106.5v241q0 62 44.5 106.5t106.5 44.5h542q62 0 106.5 -44.5t44.5 -106.5v-241q0 -62 -44.5 -106.5t-106.5 -44.5zM211 631q-38 0 -64.5 -26.5t-26.5 -63.5v-241q0 -37 26.5 -63.5t64.5 -26.5h542q37 0 63.5 26.5t26.5 63.5v241
q0 37 -26.5 63.5t-63.5 26.5h-542zM241 -152q-15 0 -24 12q-8 10 -6 22.5t12 19.5l241 181q10 8 22.5 6t20 -12t5.5 -22.5t-12 -19.5l-241 -181q-8 -6 -18 -6zM482 -152q-12 0 -21 9t-9 21v302q0 12 9 21t21 9t21 -9t9 -21v-302q0 -12 -9 -21t-21 -9zM793 -152q-9 0 -17 5
l-180 121q-11 7 -13 19t4.5 22.5t19 13t22.5 -4.5l181 -121q10 -6 12.5 -18.5t-4.5 -22.5q-9 -14 -25 -14z" />
    <glyph glyph-name="uniE62A" unicode="&#xe62a;" 
d="M898 751h-771q-29 0 -49 -19.5t-20 -46.5v-579q0 -27 20 -46t49 -19h325q-1 -6 -1 -12v-11q0 -18 7.5 -30.5t18.5 -12.5h71q11 0 18.5 12.5t7.5 30.5v11q0 6 -1 12h325q29 0 49 19t20 46v579q0 27 -20 46.5t-49 19.5zM127 710h771q12 0 20.5 -7t8.5 -18v-129l-282 -312
l-127 329l-96 -271l-111 265l-212 -291v409q0 11 8 18t20 7zM898 82h-771q-12 0 -20 7t-8 17v118l205 281l120 -288l95 268l115 -299l293 324v-404q0 -10 -8.5 -17t-20.5 -7zM757 -74h-489q-15 0 -26.5 -11t-11.5 -27t11.5 -27t26.5 -11h489q15 0 26.5 11t11.5 27t-11.5 27
t-26.5 11z" />
    <glyph glyph-name="uniE62B" unicode="&#xe62b;" 
d="M93 554q6 0 16.5 0.5t42 4.5t63 11t74 21.5t80 34.5t76 52t66.5 71q38 -54 95.5 -94t111.5 -58.5t102.5 -29t78.5 -12.5l30 -1q1 -6 1.5 -16.5t-1 -43.5t-5.5 -66.5t-16.5 -83t-31 -96t-51 -102t-74 -104.5t-103.5 -99.5t-137 -91.5h1q-95 52 -169 119.5t-117.5 130.5
t-73 133.5t-41 122t-15.5 103t-3.5 68t1.5 26.5h-1zM139 526q-1 -8 -1.5 -23t3.5 -61t14 -91.5t36.5 -108.5t65 -119.5t104.5 -116.5t151 -106h-1q85 46 151 105.5t104.5 117.5t65 118t37 110.5t14 90t3 62.5t-1.5 22q-10 1 -27.5 2t-67.5 11t-94.5 26t-97 52t-86.5 84
q-34 -48 -86.5 -84t-97.5 -52.5t-94 -26t-67.5 -11t-27.5 -1.5h1zM504 313l15 -25zM351 318h321v-35h-321v35zM494 461h35v-321h-35v321z" />
    <glyph glyph-name="uniE62C" unicode="&#xe62c;" 
d="M392 516l-331 -324l183 -25l-121 -223l318 318l-152 31zM519 698q-14 0 -24 -10t-10 -24v-269q0 -14 10 -23.5t24 -9.5h202q14 0 23.5 9.5t9.5 23.5t-9.5 24t-23.5 10h-169v235q0 14 -9.5 24t-23.5 10zM552.5 833q-109.5 0 -202.5 -54.5t-147 -147.5t-54 -202h67
q0 91 45 168.5t122.5 122.5t169 45t169 -45t122.5 -122.5t45 -168.5t-45 -168.5t-122.5 -123t-169.5 -45.5q-83 0 -157 39l-43 -52q93 -54 200 -54q110 0 203 54t147 147t54 202.5t-54 202.5t-147 147.5t-202.5 54.5z" />
    <glyph glyph-name="uniE62D" unicode="&#xe62d;" 
d="M419 259h-303q-21 0 -36 -15t-15 -35v-303q0 -21 15 -36t36 -15h303q21 0 35.5 15t14.5 36v303q0 20 -14.5 35t-35.5 15zM427 -69q0 -14 -9.5 -24t-23.5 -10h-253q-14 0 -23.5 10t-9.5 24v252q0 14 9.5 24t23.5 10h253q14 0 23.5 -10t9.5 -24v-252zM907 259h-303
q-21 0 -36 -15t-15 -35v-303q0 -21 15 -36t36 -15h303q21 0 35.5 15t14.5 36v303q0 20 -14.5 35t-35.5 15zM915 -69q0 -14 -9.5 -24t-23.5 -10h-253q-14 0 -23.5 10t-9.5 24v252q0 14 9.5 24t23.5 10h253q14 0 23.5 -10t9.5 -24v-252zM728 355q11 -12 27 -12t28 12l163 163
q11 11 11 27t-11 27l-163 164q-12 11 -28 11t-27 -11l-163 -164q-12 -11 -12 -27t12 -27zM611 562l127 128q7 7 17 7t17 -7l128 -128q7 -7 7 -17t-7 -17l-128 -127q-7 -7 -17 -7t-17 7l-127 127q-7 7 -7 17t7 17zM419 747h-303q-21 0 -36 -14.5t-15 -35.5v-303q0 -21 15 -36
t36 -15h303q21 0 35.5 15t14.5 36v303q0 21 -14.5 35.5t-35.5 14.5zM427 419q0 -14 -9.5 -24t-23.5 -10h-253q-14 0 -23.5 10t-9.5 24v252q0 14 9.5 24t23.5 10h253q14 0 23.5 -10t9.5 -24v-252z" />
    <glyph glyph-name="uniE62E" unicode="&#xe62e;" 
d="M218 -62q-42 0 -71 29l-31 30q-29 30 -29.5 72t28.5 72l295 301q-32 95 2 189t119 147q85 52 171 52q93 0 162 -61q8 -8 7 -20t-11 -18l-158 -98q-9 -6 -11.5 -16.5t2.5 -19.5l160 -264q8 -14 -1.5 -27t-25.5 -9l-1 1q-60 16 -105 16q-64 0 -118 -27l-311 -318
q-30 -31 -73 -31zM702 783q-73 0 -146 -45q-74 -46 -101.5 -129t5.5 -164q5 -14 -6 -25l-305 -312q-16 -16 -15.5 -38.5t16.5 -38.5l30 -30q16 -15 38 -15q23 0 39 16l314 321q2 2 6 4q65 35 143 35q31 0 63 -6l-130 216q-16 26 -9 56t33 46l129 79q-46 30 -104 30zM892 602
q0 -90 -58 -158l26 -42q46 49 66 113t10 131q-2 12 -13.5 17.5t-22.5 -1.5l-144 -88l24 -41zM249 55.5q-12 -7.5 -26 -4t-21 15.5t-4 25.5t15 21t25.5 4t21 -15.5t4.5 -25.5t-15 -21zM564 448q-16 0 -20 16q-2 8 2.5 15t12.5 9l72 19q9 2 16 -2.5t9 -12.5t-2 -15t-12 -10
l-73 -18q-2 -1 -5 -1zM528 509q-16 0 -20 15q-2 8 2.5 15.5t12.5 9.5l72 18q8 2 15.5 -2t9.5 -12.5t-2.5 -15.5t-12.5 -9l-72 -19h-5zM604 391q-16 0 -20 16q-2 8 2.5 15t12.5 10l72 18q9 2 16 -2t9 -12.5t-2 -15.5t-13 -9l-72 -19q-2 -1 -5 -1z" />
    <glyph glyph-name="uniE62F" unicode="&#xe62f;" 
d="M879 696l-347 143q-26 8 -52.5 0t-345.5 -143q-26 -10 -26 -26v-405q0 -4 2.5 -11t13.5 -29.5t26.5 -45.5t47 -57t71.5 -66t102 -70.5t135 -73.5q102 48 180 101.5t117 93t65 79t31 52.5t6 20v412q0 7 -6.5 13.5t-12.5 9.5zM852 258q-1 -6 -5.5 -16.5t-27.5 -43.5
t-56.5 -66t-101.5 -79t-155 -88q-86 42 -154 88t-101.5 79t-56.5 66t-27.5 43.5t-5.5 16.5v372q0 6 6.5 12t12.5 10l7 3q271 101 293 108q10 3 23 3t22 -1l8 -2l293 -106q26 -13 26 -27v-372zM564 291l-132 342l-78 -209h-95v-57h116l57 152l132 -342l95 190h76v57h-115z
" />
    <glyph glyph-name="uniE630" unicode="&#xe630;" 
d="M749 512h-7q-18 59 -68 96t-113 37q-65 0 -116 -39.5t-68 -99.5q-51 -9 -84.5 -48t-33.5 -92q0 -58 41 -99.5t100 -41.5l146 1q10 -33 38 -54t64 -21q45 0 76 31t31 75.5t-31 76t-76 31.5q-36 0 -64 -21t-38 -54h-159q-28 4 -46.5 26t-18.5 50q0 32 23 55t55 23
q24 0 35 16q5 6 9 38q9 33 43 58t74 25q41 0 74 -24t46 -62l1 -3q0 -2 1.5 -6.5t4 -9t6.5 -10t9 -9.5q6 -5 13 -7t11 -2t11.5 0.5t10.5 0.5q31 0 53.5 -21t25.5 -52v-188q0 -27 -16 -54.5t-39 -41.5l-261 -150l-261 151q-23 13 -39 41t-16 54v497q149 72 316 72t316 -72
v-113v-1q0 -14 9.5 -23.5t23 -9.5t23.5 9.5t10 23.5v1v78v52q0 21 -18 30h1l-3 2q-170 86 -362 86q-190 0 -359 -85l-5 -3q-7 -3 -12.5 -12t-5.5 -17v-3v-50v-464q0 -42 25.5 -85.5t61.5 -63.5l278 -161q17 -10 34 0l279 161q35 20 60.5 64t25.5 85v191q-5 57 -46.5 96
t-98.5 39zM648 301q18 0 30.5 -12.5t12.5 -30.5t-12.5 -30.5t-30.5 -12.5t-30.5 12.5t-12.5 30.5t12.5 30.5t30.5 12.5z" />
    <glyph glyph-name="uniE631" unicode="&#xe631;" 
d="M340 61l-276 273l69 69l276 -274l482 479l69 -69l-482 -478l-69 -69z" />
    <glyph glyph-name="uniE632" unicode="&#xe632;" 
d="M512 -161q-94 0 -179 36.5t-147 98.5t-98.5 147t-36.5 179t36.5 179t98.5 147t147 98.5t179 36.5t179 -36.5t147 -98.5t98.5 -147t36.5 -179t-36.5 -179t-98.5 -147t-147 -98.5t-179 -36.5zM512 722q-115 0 -212 -56.5t-153.5 -153.5t-56.5 -212t56.5 -212t153.5 -153.5
t212 -56.5t212 56.5t153.5 153.5t56.5 212t-56.5 212t-153.5 153.5t-212 56.5zM491 506h39v-412h-39v412zM683 438h39v-344h-39v344zM301 316h38v-222h-38v222z" />
    <glyph glyph-name="uniE633" unicode="&#xe633;" 
d="M512 830q-91 0 -173.5 -35.5t-142 -95t-95 -142t-35.5 -173.5t35.5 -173.5t95 -142t142 -95t173.5 -35.5t173.5 35.5t142 95t95 142t35.5 173.5t-35.5 173.5t-95 142t-142 95t-173.5 35.5zM512 -25q-111 0 -205.5 54.5t-149 149t-54.5 205.5t54.5 205.5t149 149
t205.5 54.5t205.5 -54.5t149 -149t54.5 -205.5t-54.5 -205.5t-149 -149t-205.5 -54.5zM867 386q-1 120 -75 215l-13 -13q69 -90 69 -202h19zM160 386q1 95 48.5 176t128.5 128t177 47q128 0 227 -83l-13 -13q-93 78 -214 78q-91 0 -168 -44.5t-121.5 -121.5t-45.5 -167h-19z
M512 458q-31 0 -52.5 -21.5t-21.5 -52.5t21.5 -52.5t52.5 -21.5t52.5 21.5t21.5 52.5t-21.5 52.5t-52.5 21.5zM512 347q-15 0 -26 11t-11 26t11 26t26 11t26 -11t11 -26t-11 -26t-26 -11zM592 431l214 213l-27 27l-212 -212q16 -12 25 -28zM465 304l-27 -28l-27 26l26 27
q12 -16 28 -25z" />
    <glyph glyph-name="uniE634" unicode="&#xe634;" 
d="M512 862q97 0 185.5 -38t152.5 -102t102 -152.5t38 -185.5t-38 -185.5t-102 -152.5t-152.5 -102t-185.5 -38t-185.5 38t-152.5 102t-102 152.5t-38 185.5t38 185.5t102 152.5t152.5 102t185.5 38zM512 896q-104 0 -199 -40.5t-163.5 -109t-109 -163.5t-40.5 -199
t40.5 -199t109 -163.5t163.5 -109t199 -40.5t199 40.5t163.5 109t109 163.5t40.5 199t-40.5 199t-109 163.5t-163.5 109t-199 40.5zM646 619q-39 0 -74.5 -19t-59.5 -52q-24 33 -59.5 52t-74.5 19q-72 0 -122.5 -56t-50.5 -136q0 -29 9 -58t17 -44.5t24 -40.5q18 -29 49 -64
t59 -62t60 -55t45.5 -39t21.5 -17q10 -8 22 -8t22 8q9 7 21.5 17t45 38.5t60.5 55.5t59 62t49 64q16 25 24 40.5t17 44.5t9 58q0 80 -50.5 136t-122.5 56zM737 309q-27 -44 -83.5 -100.5t-98.5 -91.5l-43 -35q-7 5 -18 14.5t-43 36.5t-59 53.5t-57.5 60.5t-48.5 62
q-14 22 -21.5 36.5t-14.5 37t-7 44.5q0 62 39.5 106t95.5 44q40 0 73.5 -24.5t48.5 -64.5h1q2 -10 11 -10t11 10h1q16 40 49 64.5t73 24.5q56 0 95.5 -44t39.5 -106q0 -32 -11 -58t-33 -60zM737 309z" />
    <glyph glyph-name="uniE635" unicode="&#xe635;" 
d="M512 831q-91 0 -173.5 -35.5t-142.5 -95.5t-95 -142.5t-35 -173t35 -173.5t95 -142.5t142.5 -95t173.5 -35.5t173.5 35.5t142.5 95t95.5 142.5t35.5 173.5t-35.5 173t-95.5 142.5t-142.5 95.5t-173.5 35.5zM909 384q0 -107 -53.5 -198.5t-145 -145t-198.5 -53.5
t-198.5 53.5t-145 145t-53.5 198.5t53.5 198.5t145 145t198.5 53.5t198.5 -53.5t145 -145t53.5 -198.5zM761 391h-242v299q0 11 -7.5 18.5t-18.5 7.5t-18.5 -7.5t-7.5 -18.5v-325q0 -11 7.5 -18.5t18.5 -7.5h268q10 0 17.5 7.5t7.5 18.5t-7.5 18.5t-17.5 7.5z" />
    <glyph glyph-name="uniE636" unicode="&#xe636;" 
d="M217 532l295 -336l294 336l152 12l-446 -510l-447 510z" />
    <glyph glyph-name="uniE637" unicode="&#xe637;" 
d="M512 -212q-9 3 -24.5 9t-61 27t-86.5 44.5t-91 61t-86.5 77.5t-61 92.5t-24.5 107.5v450l435 155l435 -155v-450q0 -55 -24 -107.5t-62.5 -93t-84.5 -76.5t-92.5 -61.5t-85 -44t-62.5 -27.5zM913 635l-401 143l-401 -143v-422q0 -40 13.5 -79t37 -71t53.5 -62t63 -53.5
t66.5 -44t63.5 -35.5t53.5 -25.5t36.5 -15.5l14 -5q8 3 22.5 8.5t56.5 25.5t79.5 41.5t84 57t79.5 72.5t56 86t23 100v422zM512 1q-131 0 -223.5 93t-92.5 223.5t92.5 223t223.5 92.5t223.5 -92.5t92.5 -223t-92.5 -223.5t-223.5 -93zM529 36q106 7 181.5 82.5t82.5 181.5
h-103q-5 -64 -51 -110t-110 -51v-103zM529 334h127q-6 50 -41.5 86t-85.5 41v-127zM656 300h-127v-127q50 6 85.5 41.5t41.5 85.5zM495 300h-127q6 -50 41.5 -85.5t85.5 -41.5v127zM495 36v103q-64 5 -110 51t-51 110h-103q7 -106 82.5 -181.5t181.5 -82.5zM495 598
q-106 -7 -181.5 -82.5t-82.5 -181.5h103q5 64 51 110t110 51v103zM368 334h127v127q-50 -5 -85.5 -41t-41.5 -86zM529 598v-103q64 -5 110 -51t51 -110h103q-7 106 -82.5 181.5t-181.5 82.5z" />
    <glyph glyph-name="uniE638" unicode="&#xe638;" 
d="M936 616v15q0 65 -46 110.5t-110 45.5h-4h-17l-27 66l-163 -66h-412q-64 0 -109.5 -45.5t-45.5 -110.5v-155v-208v-156q0 -64 45.5 -109.5t109.5 -45.5h710q64 0 110 45.5t46 109.5v364q0 45 -24 82.5t-63 57.5zM776 756h4q51 0 88 -36.5t37 -88.5v-4q-19 5 -38 5h-45
l-51 124h5zM789 632h-519l305 124h114h49zM715 813l10 -26h-36h-39zM33 631q0 52 36.5 88.5t87.5 36.5h336l-305 -124h-31q-37 0 -70 -17t-54 -46v62zM867 -13h-710q-51 0 -87.5 37t-36.5 88v320v44q0 51 36.5 88t87.5 37h710q51 0 88 -37t37 -88v-90h-100
q-42 0 -71.5 -27.5t-29.5 -66t29.5 -66t71.5 -27.5h100v-87q0 -51 -37 -88t-88 -37zM992 355v-125h-100q-29 0 -50 18.5t-21 44t21 44t50 18.5h100z" />
    <glyph glyph-name="uniE639" unicode="&#xe639;" 
d="M488 613v-175h-174v-43h174v-174h44v174h174v43h-174v175h-44zM510 896q-318 -112 -414 -131v-544q7 -11 20.5 -28.5t57 -66t89 -91t113.5 -89.5t134 -74q66 27 134 74t113.5 89.5t89 91t57 66t20.5 28.5v544q-43 9 -146.5 41.5t-186 61t-81.5 28.5zM880 221
q-6 -8 -17 -22t-48.5 -53.5t-77.5 -75.5t-102 -79.5t-125 -74.5q-63 31 -125 74.5t-102.5 79.5t-77.5 75.5t-48.5 53.5t-17.5 22v501q43 8 135.5 41t164.5 61l71 28q274 -111 370 -130v-501z" />
    <glyph glyph-name="uniE63A" unicode="&#xe63a;" 
d="M960 268q0 98 -38 186.5t-102.5 153t-153 102.5t-186.5 38t-186.5 -38t-153 -102.5t-102.5 -153t-38 -186.5t38 -186.5t102.5 -153t153 -102.5t186.5 -38t186.5 38t153 102.5t102.5 153t38 186.5zM311 183q-9 -9 -22.5 -9t-23 9t-9.5 22.5t10 22.5l191 192q10 9 23 9
t23 -9l192 -193q10 -10 10 -23t-9.5 -22.5t-23 -9.5t-22.5 10l-170 170z" />
    <glyph glyph-name="uniE63B" unicode="&#xe63b;" 
d="M21 394.5q0 -97.5 38 -186.5t102.5 -153t153.5 -102t186.5 -38t186.5 38t153 102t102 153t38 186.5t-38 186.5t-102 153.5t-153 102.5t-186.5 38t-186.5 -38t-153.5 -102.5t-102.5 -153.5t-38 -186.5zM670 480q10 9 23 9t22.5 -9.5t9.5 -22.5t-9 -22l-192 -192
q-9 -9 -22.5 -9t-22.5 9l-193 193q-9 9 -9 22.5t9 22.5t22.5 9t22.5 -9l170 -170z" />
    <glyph glyph-name="uniE63C" unicode="&#xe63c;" 
d="M951 -64l-94 94q-19 19 -44 6l-18 18q43 55 43 124q0 83 -58.5 142t-141.5 59t-141.5 -59t-58.5 -142t58.5 -141.5t141.5 -58.5q70 0 124 43l18 -18q-12 -24 6 -43l95 -95q11 -11 26 -11t26 11l18 18q11 11 11 26.5t-11 26.5zM537 50q97 10 136 48q18 18 27 45h-53
q-4 -6 -8 -10q-32 -31 -142 -37q-22 38 -22 82q0 57 36 102q113 -25 139 -60h54q-19 66 -148 99q38 23 82 23q68 0 115.5 -48t47.5 -115.5t-47.5 -115.5t-115.5 -48q-56 0 -101 35zM232 73q-106 1 -166 1v-60q58 0 165 -1q86 -1 124 -1q70 0 120 3q-25 25 -42 58
q-58 -2 -201 0zM411 316q23 -5 37 -8q19 29 47 51q-26 6 -72 16q-34 6 -51.5 10t-47 11t-45.5 13.5t-34 14.5t-25.5 18t-7.5 21q0 32 18 50q22 22 74 32t114 10h138q70 -2 105 -2v60q-36 0 -104 1q-84 1 -153 0.5t-127 -14.5t-89 -45q-36 -35 -36 -92q0 -19 8 -36.5
t19 -29.5t33.5 -23.5t39.5 -18.5t50 -15t52 -12z" />
    <glyph glyph-name="uniE63D" unicode="&#xe63d;" 
d="M60 715h904v-51h-904v51zM111 664h51v-565h-51v565zM111 150l399 -231l401 231v-51l-400 -231l-400 231v51zM860 664h51v-565h-51v565zM501 334l-28 -28q-21 26 -47 45v-53h-40v55q-24 -23 -43 -36q-20 -13 -55 -38q-9 19 -30 32q28 10 56.5 27t49.5 41h-79q3 26 3 47
q0 23 -3 44h101v30q-81 0 -113 -2v34q31 -2 113 -2q0 23 -3 49h45q-2 -25 -2 -49q75 0 106 2v-34q-32 2 -106 2v-30h94q-2 -21 -2 -44q0 -22 2 -47h-75q26 -15 56 -45zM639 281q32 0 68 2v-34q-37 2 -175 2v-40q129 0 160 2v-34q-32 2 -160 2v-47h150q31 0 72 2v-34
q-40 2 -70 2h-341q-30 0 -70 -2v34q43 -2 100 -2q0 59 -2 85h44q-2 -19 -2 -85h81v117q-138 0 -172 -2v34q33 -2 64 -2h253zM386 409v32h-60v-32h60zM481 409v32h-55v-32h55zM556 413q-15 10 -32 19q30 32 49 78.5t23 70.5q18 -6 47 -15q-8 -8 -30 -51h90q26 0 57 2v-34
q-30 2 -40 2q-13 -68 -55 -115q38 -25 89 -32q-13 -15 -19 -40q-30 8 -52.5 20t-41.5 29q-38 -28 -83 -49q-8 17 -28 34q47 11 83 38q-17 19 -42 62zM641 394q28 36 38 91h-76l-13 -21q28 -49 51 -70z" />
    <glyph glyph-name="uniE63E" unicode="&#xe63e;" 
d="M512 885q-102 0 -195 -39.5t-160 -107t-106.5 -160t-39.5 -194.5t39.5 -194.5t107 -160t160 -107t194.5 -39.5t194.5 39.5t160 107t107 160t39.5 194.5t-39.5 194.5t-107 160t-160 107t-194.5 39.5zM512 -75q-93 0 -178 36.5t-146.5 98t-98 146.5t-36.5 178t36.5 178
t98 146.5t146.5 98t178 36.5t178 -36.5t146.5 -98t98 -146.5t36.5 -178t-36.5 -178t-98 -146.5t-146.5 -98t-178 -36.5zM393 592h35v-138h-35v138zM535.5 158q-65.5 0 -121.5 41.5t-90 111.5h-37q38 -89 104 -142t145 -53t145 53t104 142h-37q-34 -70 -90.5 -111.5
t-122 -41.5zM623 592h35v-138h-35v138z" />
    <glyph glyph-name="uniE63F" unicode="&#xe63f;" 
d="M512 -212q-139 0 -257 68.5t-186.5 186.5t-68.5 257t68.5 257t186.5 186.5t257 68.5t257 -68.5t186.5 -186.5t68.5 -257t-68.5 -257t-186.5 -186.5t-257 -68.5zM358 320l6 6q16 16 22.5 24.5t10.5 24.5t-5.5 36t-30.5 47q-12 14 -23.5 22.5t-20.5 13t-20 2.5t-17.5 -4
t-17 -10t-15 -12.5t-14.5 -15t-13 -13.5q-34 -34 4.5 -134.5t142.5 -204.5t204.5 -141.5t134.5 -3.5l14 13l14 16q5 4 13 14t10 17t3.5 17.5t-2.5 20t-13 21t-23 22.5q-27 22 -47 31t-35.5 5t-24.5 -10.5t-25 -23.5l-6 -6q-30 -31 -143.5 82t-82.5 144zM701 257
q-11 69 -61.5 119.5t-119.5 61.5q-16 2 -28 -9q-9 -10 -9 -23t9 -23q2 -2 4.5 -3.5t5 -2.5t4.5 -1.5t3 -1.5h1q51 -9 84.5 -43t43.5 -85q1 -10 9 -18q9 -9 22.5 -9t22.5 9q5 5 7.5 12.5t1.5 11.5v5zM721.5 458.5q-43.5 43.5 -93 67.5t-83 28t-62.5 0q-12 -2 -20 -9
q-9 -10 -9 -23t9 -23q5 -5 12.5 -7t11.5 -2l5 1q43 6 91.5 -14t93 -64.5t64 -93t13.5 -91.5q-3 -17 8 -29q10 -9 23.5 -9t22.5 9q3 3 5.5 8.5t3.5 8.5v3q5 29 0.5 62.5t-28.5 83.5t-67.5 93.5z" />
    <glyph glyph-name="uniE640" unicode="&#xe640;" 
d="M692 174q-10 15 4 27q43 35 66.5 85t23.5 105q0 56 -24 106t-68 85q-6 5 -7.5 13t3.5 15t14 8.5t15 -4.5q51 -40 79.5 -99t28.5 -124t-27.5 -123t-77.5 -99q-7 -5 -15.5 -4t-14.5 9zM553 392zM553 392zM403 170zM809 2q-5 7 -4 15t7 13q81 68 125 162.5t44 199.5
q0 107 -44.5 201.5t-126.5 162.5q-6 5 -7 13t4 15t14 8t16 -5q82 -68 130 -163q55 -109 55 -232q0 -122 -55 -230q-47 -95 -129 -163q-6 -6 -15 -5t-14 8zM553 392zM345 84zM212 174h-125q-34 0 -57.5 23.5t-23.5 57.5v272q0 33 23.5 57t57.5 24h129q5 0 7 -3t2.5 -6t0.5 -9
v-3h10q0 -8 -6 -14t-14 -6h-129q-17 0 -28.5 -12t-11.5 -28v-272q0 -17 11.5 -28.5t28.5 -11.5h130q8 0 14 -6t6 -15h-13q0 -20 -12 -20zM530 -88q-33 0 -58 20l-266 246q-6 6 -7 14t5 15q5 7 13.5 7.5t14.5 -4.5l266 -246q24 -19 53 -7q28 12 31 42v6v773v2q-1 31 -30 45
q-30 13 -55 -7l-266 -247q-6 -5 -14.5 -4t-13.5 7l12 10l-5 4l-4 4l-2 4q-2 1 -1.5 3t3.5 4l265 246q21 17 47 20.5t51 -7.5q24 -11 38.5 -33t15.5 -48v-3v-773v-9q-3 -26 -17.5 -46.5t-38.5 -30.5q-18 -7 -37 -7z" />
    <glyph glyph-name="uniE641" unicode="&#xe641;" 
d="M888 407q-13 35 -32 66.5t-48.5 65.5t-73.5 63.5t-99 48.5q-11 4 -22.5 -1.5t-16 -17t1 -23t17.5 -15.5q157 -55 216 -206q6 -16 11 -32q-23 10 -48 10q-58 0 -93 -46q-35 46 -95 46q-58 0 -94 -43q-33 43 -93 43q-65 0 -103 -50q-37 50 -94 50q-29 0 -53 -11
q35 127 157 199q39 23 85.5 39t64.5 19.5t28 4.5q11 1 19 10t8 20v69q0 13 -9 22t-21.5 9t-21.5 -9t-9 -22v-43q-94 -18 -174 -65q-38 -23 -71 -53t-64.5 -73.5t-49.5 -105t-18 -133.5q0 -13 9 -22t21.5 -9t21.5 9t9 22q0 7 5 19.5t21.5 27.5t41.5 15q14 0 25.5 -7.5
t18.5 -16.5t12.5 -20.5t7 -16.5t1.5 -8q3 -11 11.5 -17.5t19.5 -6t19.5 8t9.5 18.5q3 16 14 34q19 32 58 32q36 0 50 -28q9 -16 10 -35v-222q0 -59 -15.5 -82.5t-61.5 -23.5q-43 0 -60 27q-14 22 -14 63q0 12 -9 21t-21.5 9t-21.5 -9t-9 -21q0 -59 24 -97q35 -54 111 -54
q78 0 112 50q26 39 26 117v220q3 18 12 34q18 31 54 31q34 0 51 -29q10 -17 12 -36q1 -12 9.5 -19.5t20 -8t20.5 7t11 18.5q2 18 13 36q18 31 51 31q32 0 51 -30q10 -16 14 -37q2 -12 11.5 -19t21 -6.5t19.5 9t9 20.5q2 77 -32 165z" />
    <glyph glyph-name="uniE642" unicode="&#xe642;" horiz-adv-x="1025" 
d="M269 101q0 9 6 15t14.5 6t14.5 -6t6 -15t-6 -15.5t-14.5 -6.5t-14.5 6.5t-6 15.5zM432.5 294q-8.5 0 -14.5 6.5t-6 15t6 15t14.5 6.5t14.5 -6.5t6 -15t-6 -15t-14.5 -6.5zM577 100.5q0 17.5 12 30.5t29 13t29 -13t12 -30.5t-12 -30t-29 -12.5t-29 12.5t-12 30zM781.5 294
q-25.5 0 -43.5 19t-18 45.5t18 45.5t43.5 19t43.5 -19t18 -45.5t-18 -45.5t-43.5 -19zM1024 201q0 -118 -60 -185.5t-170 -67.5h-621q-80 0 -126.5 44t-46.5 125q0 57 29.5 99t80.5 67q-2 23 -2 31q0 92 54 144.5t145 52.5q23 0 50 -7q30 68 84 108t125 40q85 0 142.5 -50.5
t76.5 -135.5h-1h-2q-43 0 -73 -31.5t-30 -76.5q0 -44 31 -76l-67 -100q-14 5 -25 5q-25 0 -46 -15l-89 107q11 16 11 37q0 26 -18 45t-43.5 19t-43.5 -19t-18 -46q0 -22 14 -40l-77 -113q-10 3 -19 3q-25 0 -43 -19t-18 -45.5t18 -45.5t43.5 -19t43.5 19t18 46q0 19 -10 35
l79 116q6 -1 13 -1q8 0 17 3l95 -114q-10 -19 -10 -39q0 -36 24.5 -61t58.5 -25t58 25t24 61q0 33 -22 58l66 100q19 -8 38 -8q42 0 72 31.5t30 75.5q0 34 -17.5 60.5t-45.5 39.5q91 -19 147 -88t56 -169z" />
    <glyph glyph-name="uniE643" unicode="&#xe643;" 
d="M723.5 417q-94.5 0 -161 -66.5t-66.5 -161t66.5 -161.5t161 -67t161.5 67t67 161.5t-67 161t-161.5 66.5zM819 6q-1 0 -2 2t-3 9.5t0 18.5q-25 8 -46 25q-15 22 1 40l-5 7q-3 5 -17.5 14.5t-36.5 12.5l-40 3q-19 20 -21 42q-17 17 -46 25q-1 0 -3.5 1.5t-8 6.5t-8.5 11.5
t-2 19t8 26.5q0 1 1 3t3.5 8t4.5 11t3 11.5t0 11.5t-4.5 9t-10.5 4q-16 -9 -22 -9l-7 6q1 2 2.5 5.5t7.5 12.5t13 13t18.5 8t24.5 -2q19 -9 22 -24q11 -9 45 14q2 0 4 -0.5t7 -2t7.5 -4t1 -6.5t-8.5 -9q-11 -8 -14 -10.5t-7 -6.5t-1.5 -5.5t7 -4t14.5 -4.5q1 -1 3.5 -1.5
t9 -0.5t10 3.5t7 10.5t-0.5 21q1 1 4 2.5t13 1t22 -6.5t32.5 -24t43.5 -47l-1 -1q-8 -4 -62 -8q-40 -6 -29 -36t39 -43q-1 -2 -3.5 -4.5t-13 -3t-24.5 7.5q-1 1 -4 3.5t-6.5 9.5t-1.5 14q-3 3 -7.5 5.5t-17 3t-23.5 -8.5q0 -1 -1 -2.5t-2 -6t-1.5 -8.5t1.5 -8t6 -6
t12.5 -1.5t21.5 3.5q0 -2 1.5 -6.5t8 -14t16.5 -14t30 -1.5t46 18q1 1 4.5 2t25 -3.5t54.5 -18.5q7 -32 -19 -71t-61 -50q-7 -2 -14 -3zM464 468q121 0 217.5 19t149.5 50.5t53 70.5v84q0 38 -53 70t-149.5 51t-217.5 19q-180 0 -286 -40t-106 -100v-84q0 -60 106 -100
t286 -40zM413 133q-232 9 -321 97q-20 -20 -20 -42v-112q0 -60 106 -100t286 -40q34 0 73 2q-49 35 -81 85.5t-43 109.5zM408 189q1 111 71 195h-7h-9q-272 0 -371 98q-20 -20 -20 -42v-112q0 -55 90 -93.5t246 -45.5z" />
    <glyph glyph-name="uniE644" unicode="&#xe644;" 
d="M70 656q38 4 41 5q25 5 46 23q19 15 27 34q6 13 12 38q0 1 4 28q58 21 61 22q65 24 115 43q30 11 74 27q42 15 45 17q12 6 28 0q36 -12 67 -23q20 -8 57 -21.5t44 -16.5q29 -10 127 -46l5 -2q9 -44 10 -47q6 -24 24 -44q24 -26 60 -33q3 -1 28 -3h10q3 -35 3 -37
q2 -43 2 -64q0 -30 -2 -56q-2 -23 -9 -77q-8 -57 -24 -108q-17 -54 -31 -90q-7 -17 -35 -71q-19 -36 -54 -82q-8 -9 -29 -33q-14 -15 -23 -24q-37 -35 -72 -60q-47 -34 -102 -59q-32 -16 -51 -21q-21 -7 -43 3q-5 2 -30 13.5t-39 18.5q-49 25 -88 57q-2 1 -49 41
q-19 16 -51 55q-27 32 -51 71q-28 45 -43 83q-23 59 -29 77q-9 29 -22 88q-5 20 -11 60q-2 14 -3 37q-2 22 -4 67q-1 29 -1 35q0 8 5 62zM252 741l-3 -12q-10 -42 -37 -72q-34 -39 -85 -52q-3 -1 -4 -3q-1 -4 -1 -9q1 -72 2 -91q1 -20 5 -49q5 -44 9 -61q8 -36 22 -83
q14 -50 42 -105q23 -45 47 -76q23 -29 41 -50q14 -16 33 -33q18 -16 40 -33q37 -29 82 -52q15 -7 58 -26q8 -4 12 -3q15 5 33 14q34 17 50 26q24 14 48 31q15 10 39 31q21 17 35 31q11 11 26 30q22 26 33 41q30 42 51 87q13 30 16 37q19 53 26 80q10 33 18 74q5 29 9 69
q1 15 3 62q1 10 0 29q0 14 -1 28q0 2 -3 4q-2 1 -7 2q-46 12 -80 51q-30 34 -39 83l-1 1q-24 8 -67.5 24t-56.5 21q-106 39 -123 46q-12 4 -25 0q-26 -10 -103 -39q-12 -4 -34 -12t-30 -11q-10 -4 -80 -30zM331 162q9 56 10 61q2 10 5.5 31t5.5 32q1 8 10 58l2 15q2 5 -2 9
q-11 10 -30.5 29t-23.5 24q-17 16 -45 43q-6 6 -19.5 19t-19.5 19l-5 5q21 3 23 4q37 5 45 7q7 1 21.5 3t21.5 3q9 1 24.5 3.5t20.5 2.5q19 3 34 5q1 0 4.5 0.5t6 1t3.5 3.5q9 17 25 50t20 42q10 19 43 86l1 2q23 -45 24 -48q49 -98 63 -127q4 -9 13 -10q31 -4 60 -8
q8 -1 25 -4t26 -4q8 -1 22.5 -3t21.5 -3q3 0 39 -6q-33 -31 -42 -40l-4 -4q-69 -68 -84 -82q-7 -8 -10 -10q-8 -5 -6 -17q2 -10 5.5 -30t5.5 -30q1 -8 4.5 -27t5.5 -29q2 -11 5 -31.5t4 -26.5q0 -1 4 -18q-30 16 -32 17q-4 2 -13 7t-14 7q-9 5 -29 15t-31 16q-29 16 -59 32
q-4 2 -8 0q-7 -4 -98 -52q-32 -17 -64 -33q0 -1 -15 -9z" />
    <glyph glyph-name="uniE645" unicode="&#xe645;" 
d="M695 40h-546q-38 0 -64.5 26.5t-26.5 64.5v416q0 38 26.5 64.5t64.5 26.5h546h74h123q-20 28 -51 44.5t-66 16.5h-632q-59 0 -101 -42t-42 -101v-445q0 -59 41.5 -96t101.5 -37h632q39 0 71 16.5t51 45.5h-128h-74zM979 588h-65h-63h-47q-19 0 -32 -13t-13 -31v-410
q0 -18 13 -31t32 -13h47h65h63q18 0 31 13t13 31v410q0 18 -13 31t-31 13zM991 151q0 -12 -8.5 -20t-20.5 -8h-44h-58h-39q-12 0 -20.5 8t-8.5 20v376q0 12 8.5 20.5t20.5 8.5h39h58h44q12 0 20.5 -8.5t8.5 -20.5v-376zM907 527h-37h-9h-1v-15h1h9h37h11h5v15h-5h-11z
M891 182q-8 0 -13.5 -5.5t-5.5 -13.5t5.5 -13.5t13.5 -5.5q6 0 11 3q9 6 9 16q0 6 -4 11q-6 8 -16 8zM680.5 175q20.5 0 35.5 14.5t15 35t-15 35t-35 14.5q-13 0 -25 -7l-97 104q2 5 3 10q2 8 2 16q0 29 -20.5 49.5t-49.5 20.5t-49.5 -20.5t-20.5 -49.5v-5q0 -5 1 -10
l-112 -70q-28 25 -66 25q-42 0 -71.5 -29.5t-29.5 -71t29.5 -71.5t71 -30t71.5 30t30 71q0 18 -7 35l102 77q21 -21 51 -21q28 0 49 20l98 -93q-10 -13 -10 -30q0 -20 14.5 -34.5t35 -14.5zM628 -69h-298q-11 0 -18 -5.5t-7 -12.5v-1q0 -7 7 -12.5t18 -5.5h298
q10 0 17.5 5.5t7.5 12.5v1q0 7 -7.5 12.5t-17.5 5.5z" />
    <glyph glyph-name="uniE646" unicode="&#xe646;" 
d="M512 -143q-8 2 -21 7t-51 23t-73 37.5t-77 51.5t-72.5 65.5t-51.5 78t-21 90.5v379l367 130l367 -130v-379q0 -46 -20.5 -90.5t-52.5 -78.5t-71.5 -64.5t-78.5 -52t-71.5 -37t-52.5 -23.5zM497 353l65 151h-10l-215 -237h199l-67 -183v-12h5l223 281h-200z" />
    <glyph glyph-name="uniE647" unicode="&#xe647;" 
d="M387 288q29 -81 57 -136q21 -40 25 -35q21 73 21 88q0 5 -12.5 23t-6.5 33q8 19 29.5 25t40.5 -6q18 -11 19.5 -22.5t-9.5 -30.5q-6 -11 -9.5 -21t-4.5 -14l-1 -4l28 -75l78 169q11 26 67.5 -17.5t106 -117.5t43.5 -125q-4 -32 -77 -52.5t-175 -25t-203 -1t-171.5 16.5
t-70.5 30q0 223 225 298zM529 831q15 -1 30 -5v-52q0 -5 3.5 -8t8.5 -3h24q5 0 8.5 3t3.5 8v34q52 -27 85 -76.5t37 -109.5h37v-37h-513v37h28q3 60 35.5 109.5t84.5 76.5v-34q0 -5 3.5 -8t8.5 -3h24q5 0 8.5 3t3.5 8v52q16 4 32 5v-136q0 -4 3.5 -7.5t8.5 -3.5h24
q5 0 8.5 3.5t3.5 7.5v136zM306 613q0 -9 -0.5 -23t1 -52.5t7.5 -71t22.5 -67t41.5 -50.5q69 -46 127 -50t121 37q58 40 73.5 78t13.5 106l-2 94zM328 596h362q-2 -11 1 -83q2 -61 -12 -94t-65 -68q-57 -36 -109 -32.5t-113 43.5q-22 14 -36.5 44.5t-20 59.5t-7 63t-1 47
t0.5 20zM306 581q-27 1 -37.5 -23t2.5 -43q7 -10 19 -19.5t20 -12.5l9 -4l-3 27q-1 -1 -2.5 -1.5t-6.5 -1.5t-9 0.5t-8.5 7t-6.5 14.5q-3 14 5.5 25.5t15.5 18t2 12.5zM714 581q25 1 35 -23t-2 -43q-6 -10 -17.5 -19.5t-19.5 -12.5l-9 -4l3 27q1 -1 2.5 -1.5t6.5 -1.5
t8.5 0.5t8 7t6.5 14.5q3 14 -5 25.5t-15 18t-2 12.5z" />
    <glyph glyph-name="uniE648" unicode="&#xe648;" 
d="M693 695q-94 0 -174 52q-80 -52 -180 -52q-49 0 -101 14.5t-70 23.5l-28 14v-476q0 -46 21 -93.5t52.5 -87t73 -77.5t79 -65.5t73 -50t53 -32.5t20.5 -11q4 1 21 11t53 32.5t73.5 50t78.5 65.5t73 77.5t53 87t21 93.5v476q-10 -6 -26.5 -14.5t-66.5 -23t-99 -14.5z
M849 271q0 -49 -29.5 -102.5t-68.5 -94t-91.5 -81t-85 -61.5t-62.5 -38q-37 21 -77 47.5t-88 66t-85 80t-62 89.5t-25 94v420q4 -1 25.5 -7.5t27.5 -8t24.5 -6t29 -6t27 -3t31.5 -1.5q98 0 179 47q81 -47 173 -47q84 0 157 32v-420zM418 225q-29 36 -29 82v52h163l26 25
h-215v-77q0 -57 37 -100zM512 319q-13 -1 -22.5 -10.5t-10.5 -23.5zM447 418q-15 22 -12 50t23 48q22 23 53 23.5t52 -20.5l39 -40l18 19l-39 39q-28 29 -69.5 28.5t-71.5 -31.5q-27 -27 -30.5 -64t17.5 -67zM622 359h22v-52q0 -54 -37.5 -91.5t-90.5 -37.5q-32 0 -60 15
l-19 -19q37 -22 79 -22q64 0 109 45.5t45 109.5v77h-22zM367 127l351 352l-11 11l-351 -351zM555 255v26q0 4 -2 9l-24 -24v-11q0 -5 -3.5 -9t-9.5 -4q-4 0 -7 3l-19 -18q11 -11 26 -11q16 0 27.5 11.5t11.5 27.5z" />
    <glyph glyph-name="uniE649" unicode="&#xe649;" 
d="M959 599q0 62 -43.5 105.5t-105.5 43.5h-597q-62 0 -105.5 -43.5t-43.5 -105.5v-597q0 -62 43.5 -105.5t105.5 -43.5h597q62 0 105.5 43.5t43.5 105.5v597zM885 28q0 -42 -30 -72t-72 -30h-544q-42 0 -71.5 30t-29.5 72v543q0 43 29.5 72.5t71.5 29.5h544q42 0 72 -29.5
t30 -72.5v-543zM798 461q7 0 12.5 5t5.5 13v18q0 7 -5.5 12t-12.5 5h-262q3 5 3 9v63q0 7 -5.5 12.5t-12.5 5.5h-18q-7 0 -12.5 -5.5t-5.5 -12.5v-63q0 -4 3 -9h-262q-7 0 -12.5 -5t-5.5 -12v-18q0 -8 5.5 -13t12.5 -5h80v-116h-80q-7 0 -12.5 -5.5t-5.5 -12.5v-18
q0 -7 5.5 -12.5t12.5 -5.5h259v-116h-259q-7 0 -12.5 -5.5t-5.5 -12.5v-18q0 -7 5.5 -12.5t12.5 -5.5h80v-125h54v125h304v-125h54v125h80q7 0 12.5 5.5t5.5 12.5v18q0 7 -5.5 12.5t-12.5 5.5h-259v116h259q7 0 12.5 5.5t5.5 12.5v18q0 7 -5.5 12.5t-12.5 5.5h-80v116h80z
M664 345h-304v116h304v-116z" />
    <glyph glyph-name="uniE64A" unicode="&#xe64a;" 
d="M866 748h-706q-27 0 -46 -18.5t-19 -45.5v-770q0 -27 19 -45.5t46 -18.5h706q26 0 45 18.5t19 45.5v770q0 27 -19 45.5t-45 18.5zM866 -54q0 -13 -9.5 -22.5t-23.5 -9.5h-641q-14 0 -23 9.5t-9 22.5v610h706v-610zM866 620h-706v32q0 13 9 22.5t23 9.5h641
q14 0 23.5 -9.5t9.5 -22.5v-32zM452 124q2 -5 5 -8q10 -10 24 -9q13 -1 22 9q3 2 4 5l221 220q9 10 9 23t-9 22.5t-22.5 9.5t-22.5 -10l-203 -203l-107 108q-9 9 -22 9t-22 -9t-9 -22t9 -22z" />
    <glyph glyph-name="uniE64B" unicode="&#xe64b;" 
d="M932.5 717q-21.5 22 -52.5 22q-45 0 -94.5 14t-84.5 31.5t-69.5 40.5t-46.5 32.5t-18 14.5q-21 19 -50 19t-50 -19q-38 -34 -97 -67q-115 -66 -216 -66q-31 0 -53 -22t-22 -53v-218q0 -150 94 -282t301 -276q19 -13 42.5 -13t42.5 13q208 144 301.5 276t93.5 282v218
q0 31 -21.5 53zM878 446q0 -41 -7 -77t-29 -85.5t-60.5 -98t-105.5 -109.5t-159 -125q-92 64 -159.5 125t-105.5 109.5t-60.5 98t-29 85.5t-6.5 77v216q66 1 137 24q58 19 116 53q62 36 108 75q45 -39 108 -75q58 -34 116 -53q71 -23 137 -24v-216zM705 343l-27 16
q2 13 2 25t-2 25l27 16q12 7 15.5 21t-3.5 26l-26 47q-10 17 -30 17q-10 0 -18 -4l-26 -16q-21 17 -44 26v17q0 15 -10 25t-24 10h-54q-14 0 -24 -10t-10 -25v-17q-23 -9 -44 -26l-26 16q-8 4 -18 4q-20 0 -30 -17l-26 -47q-7 -12 -3.5 -26t15.5 -21l27 -15q-2 -14 -2 -26
t2 -25l-27 -16q-12 -7 -15.5 -21t3.5 -26l26 -47q10 -17 30 -17q10 0 18 4l26 16q21 -17 44 -26v-17q0 -15 10 -25t24 -10h54q14 0 24 10t10 25v17q23 9 44 26l26 -16q8 -4 18 -4q20 0 30 17l26 47q7 12 3.5 26t-15.5 21zM487 259q-41 9 -69 41l-4 4l-43 -24q-1 -1 -3 -1
q-3 0 -5 3l-13 23q-3 5 2 8l43 25l-2 6q-7 20 -7 40t7 40l2 6l-43 25q-5 3 -2 8l13 23q2 3 5 3q2 0 3 -1l43 -24l4 4q28 32 69 41l6 1v36q0 6 6 6h26q6 0 6 -6v-36l6 -1q41 -9 69 -41l4 -4l43 24q1 1 3 1q3 0 5 -3l13 -23q3 -5 -2 -8l-43 -25l2 -6q7 -20 7 -40t-7 -40l-2 -6
l43 -25q5 -3 2 -8l-13 -23q-2 -3 -5 -3q-2 0 -3 1l-43 24l-4 -4q-28 -32 -69 -41l-6 -1v-36q0 -6 -6 -6h-26q-6 0 -6 6v36zM587 384q0 31 -22 53t-53 22t-53 -22t-22 -53t22 -53t53 -22t53 22t22 53zM512 417q13 0 22.5 -9.5t9.5 -23.5t-9.5 -23.5t-22.5 -9.5t-22.5 9.5
t-9.5 23.5t9.5 23.5t22.5 9.5z" />
    <glyph glyph-name="uniE64C" unicode="&#xe64c;" 
d="M504 469v-75h21q44 0 44 38q0 37 -43 37h-22zM793 567v210q0 23 -16.5 39.5t-39.5 16.5h-448q-23 0 -39.5 -16.5t-16.5 -39.5v-210h-104v-350h104v-224q0 -23 16.5 -39.5t39.5 -16.5h448q23 0 39.5 16.5t16.5 39.5v224h104v350h-104zM737 763v-196h-448v196h448zM621 434
q0 -36 -26 -57.5t-66 -20.5h-25v-81h-50v233h80q87 0 87 -74zM262 328l-17 -53h-54l85 233h59l83 -233h-54l-17 53h-85zM513.5 -35q-11.5 0 -20 8t-8.5 20t8.5 20t20 8t19.5 -8t8 -20t-8 -20t-19.5 -8zM737 49h-448v168h448v-168zM791 376.5q-26 -21.5 -66 -20.5h-25v-81
h-50v233h80q87 0 87 -74q0 -36 -26 -57.5zM722 469h-22v-75h21q44 0 44 38q0 37 -43 37zM305 468h-1q-1 -11 -5 -20l-26 -81h62l-26 80q-3 8 -4 21z" />
    <glyph glyph-name="uniE64D" unicode="&#xe64d;" horiz-adv-x="1093" 
d="M669 247h-275q-7 0 -12 -5t-5 -12v-34q0 -7 5 -12t12 -5h275q7 0 12 5t5 12v34q0 7 -5 12t-12 5zM428 474.5q0 31.5 -22.5 54t-54.5 22.5t-54.5 -22.5t-22.5 -54t22.5 -53.5t54.5 -22t54.5 22t22.5 53.5zM961 589h-35q-1 0 -2.5 -0.5t-2.5 -0.5q-51 123 -162 198.5
t-247 75.5q-90 0 -172.5 -35t-141.5 -94.5t-94.5 -142t-35.5 -172.5q0 -147 87 -263t223 -159q5 -24 23.5 -40t43.5 -16h172q29 0 49 20t20 49v34q0 28 -20 48t-49 20h-172q-21 0 -38.5 -12.5t-24.5 -32.5q-109 41 -177 137t-68 215q0 102 50 188.5t136.5 137t188.5 50.5
q119 0 215 -68t137 -177q-7 -14 -7 -28v-205q0 -29 20 -49t49 -20h34q29 0 49 20t20 49v205q0 28 -20 48t-48 20zM711 551q-32 0 -54.5 -22.5t-22.5 -54t22.5 -53.5t54.5 -22t55 22t23 53.5t-23 54t-55 22.5z" />
    <glyph glyph-name="uniE64E" unicode="&#xe64e;" 
d="M65 780v-785h897v785h-897zM906 51h-785l1 624h785zM382 200q8 -8 19.5 -8t19.5 8t8 19.5t-8 19.5l-92 93l92 92q8 8 8 20t-8 20t-19.5 8t-19.5 -8l-113 -112q-8 -9 -8 -20.5t8 -19.5zM606 200q8 -8 19.5 -8t20.5 8l112 112q8 8 8 19.5t-8 20.5l-112 112q-9 8 -20.5 8
t-19.5 -8t-8 -20t8 -20l92 -92l-92 -93q-8 -8 -8 -19.5t8 -19.5zM606 200z" />
    <glyph glyph-name="uniE64F" unicode="&#xe64f;" 
d="M512 864q-129 0 -239.5 -65t-175.5 -175.5t-65 -239.5t65 -239.5t175.5 -175.5t239.5 -65t239.5 65t175.5 175.5t65 239.5t-65 239.5t-175.5 175.5t-239.5 65zM512 -32q-169 0 -292.5 122t-123.5 294q0 169 122 292.5t294 123.5q169 0 292.5 -122t123.5 -294
q0 -168 -124 -292t-292 -124zM749 333q6 19 6 51q0 106 -75 181t-180.5 75t-181 -75t-75.5 -181q-45 -36 -45 -102q0 -50 35 -86t87 -36q26 0 45 6q64 -38 134 -38q51 0 97.5 21t81.5 56q13 -13 20.5 -19.5t19.5 -13t24 -6.5q34 0 59 25t25 59t-22 58.5t-55 24.5zM314 218
q-29 0 -50 20.5t-21 49.5t21 49.5t50 20.5q28 0 49 -23.5t21 -52.5t-20.5 -46.5t-49.5 -17.5zM499 192q-38 0 -89 26q25 38 25 70q0 49 -35 85.5t-86 36.5h-7q5 68 60.5 117t131.5 49q82 0 137 -55t55 -137t-55 -137t-137 -55zM748.5 218q-14.5 0 -23 8.5t-8.5 23t8.5 23.5
t23 9t23.5 -9t9 -23.5t-9 -23t-23.5 -8.5z" />
    <glyph glyph-name="uniE650" unicode="&#xe650;" 
d="M873 475l-1 -1q4 -33 4 -60q0 -108 -47.5 -219t-134.5 -198.5t-193 -121.5q-106 34 -193.5 121.5t-135 198.5t-47.5 219q0 27 5 61q-7 12 -3.5 26t15.5 21l341 216l9 3h2q3 1 7 1t8 -1h1q7 -2 9 -3l341 -216q12 -7 16 -21t-3 -26zM500.5 95q14.5 0 24.5 10t10 24t-10 24
t-24.5 10t-24.5 -10t-10 -24t10 -24t24.5 -10zM500.5 505q-23.5 0 -40 -17t-16.5 -40l22 -228q0 -14 10 -24t24.5 -10t24.5 10t10 24l23 228q0 23 -17 40t-40.5 17z" />
    <glyph glyph-name="uniE651" unicode="&#xe651;" 
d="M512 834q-91 0 -174.5 -35.5t-144 -96t-96 -144t-35.5 -175t35.5 -175t96 -144t144 -96t175 -35.5t175 35.5t144 96t96 144t35.5 175t-35.5 175t-96 144t-144 96t-175.5 35.5zM710 247q12 -13 12 -30.5t-12.5 -30t-30 -12.5t-30.5 12l-137 137l-136 -137
q-13 -12 -30.5 -12t-30.5 12.5t-13 30t13 30.5l137 137l-137 136q-13 13 -13 30.5t13 30.5t30.5 13t30.5 -13l136 -137l137 137q13 13 30.5 13t30 -13t12.5 -30.5t-12 -30.5l-137 -136zM710 247z" />
    <glyph glyph-name="uniE652" unicode="&#xe652;" 
d="M512 831q-91 0 -174 -35.5t-142.5 -95t-95 -142.5t-35.5 -174t35.5 -174t95 -142.5t142.5 -95t174 -35.5t174 35.5t142.5 95t95 142.5t35.5 174t-35.5 174t-95 142.5t-142.5 95t-174 35.5zM792 532l-359 -360q-4 -4 -11 -5q-11 -3 -19 5l-185 185q-6 6 -6 14t6 14l23 23
q5 6 13 6t14 -6l150 -150l324 324q5 6 13 5.5t14 -6.5l23 -22q6 -6 6 -14t-6 -13z" />
    <glyph glyph-name="uniE653" unicode="&#xe653;" 
d="M640 32l-64 128h326q24 0 41 17t17 41v524q0 24 -17 41t-41 17h-780q-24 0 -41 -17t-17 -41v-524q0 -24 17 -41t41 -17h326l-64 -128h-384v-64h1024v64h-384zM186 224q-24 0 -41 17t-17 41v396q0 24 17 41t41 17h652q24 0 41 -17t17 -41v-396q0 -24 -17 -41t-41 -17h-652
z" />
    <glyph glyph-name="uniE654" unicode="&#xe654;" 
d="M386 843q90 0 166.5 -44.5t121 -121t44.5 -166.5q0 -57 -20 -111l-10 -30l22 -22l229 -229q33 -33 33 -80t-33.5 -80.5t-80.5 -33.5t-80 33l-229 229l-22 22l-30 -10q-54 -20 -111 -20q-90 0 -166.5 44.5t-121 121t-44.5 166.5q0 59 20 113l182 -182l35 -35l35 35
l129 129l35 35l-35 35l-182 182q54 20 113 20zM386 893q-79 0 -152 -32l-22 -9v-1q-4 -1 -6 -4q-6 -5 -6 -13t6 -14l213 -214l-128 -128l-209 209h-1h-1q-6 7 -15.5 7t-16.5 -7q-3 -3 -5 -8v0l-7 -16q-32 -73 -32 -152q0 -103 51 -191t139 -139t192 -51q66 0 128 22
l229 -229q48 -48 115 -48q68 0 116 48t48 116t-48 115l-229 229q22 62 22 128q0 104 -51 191.5t-139 139t-191 51.5z" />
    <glyph glyph-name="uniE655" unicode="&#xe655;" 
d="M762 -147h-643q-23 0 -39 16.5t-16 39.5v699q0 23 16 39.5t39 16.5h448l1 -1l-56 -55h-393v-699h643v356l56 54v-410q0 -23 -16.5 -39.5t-39.5 -16.5zM917 534q-10 -10 -70.5 -70t-126 -125t-126 -124.5t-63.5 -62.5q-4 -4 -10 -6q-12 -3 -61.5 -19t-93 -30t-44.5 -14
q-4 -2 -8 -2q-9 0 -16 7q-10 10 -6 24q47 152 61 204q1 6 6 10l383 383q40 40 90 40q45 0 83 -37q43 -41 44 -87q0 -47 -42 -91zM876 672q-22 21 -44 21q-27 0 -50 -23q-24 -24 -378 -377q-9 -33 -41 -138q97 31 134 43l18 17q337 333 361 357q27 28 27 52q-1 22 -27 48z
" />
    <glyph glyph-name="uniE656" unicode="&#xe656;" 
d="M857 -119h-669q-44 0 -75 31t-31 75v595q0 44 31 75.5t75 31.5h669q44 0 75 -31.5t31 -75.5v-595q0 -44 -31 -75t-75 -31zM927 550q0 44 -31 75t-75 31h-596q-45 0 -76 -31t-31 -75v-530q0 -45 31 -76t76 -31h596q44 0 75 31t31 76v530zM309 523h-43q-8 0 -14 6t-6 14
v199q0 8 6 14t14 6h43q8 0 13.5 -6t5.5 -14v-199q0 -8 -5.5 -14t-13.5 -6zM555 523h-42q-9 0 -14.5 6t-5.5 14v199q0 8 5.5 14t14.5 6h42q8 0 14 -6t6 -14v-199q0 -8 -6 -14t-14 -6zM784 523h-43q-6 0 -11 5t-5 12v205q0 7 5 12t11 5h43q7 0 12 -5t5 -12v-205q0 -7 -5 -12
t-12 -5zM246 358v92h123v-92h-123zM452 358v92h123v-92h-123zM678 358v92h123v-92h-123zM246 211v92h123v-92h-123zM452 211v92h123v-92h-123zM678 211v92h123v-92h-123zM246 64v92h123v-92h-123zM452 64v92h123v-92h-123zM678 64v92h123v-92h-123z" />
  </font>
</defs>
</svg>
